G04 #@! TF.GenerationSoftware,KiCad,Pcbnew,5.1.5+dfsg1-2build2*
G04 #@! TF.CreationDate,2021-09-03T15:27:24+02:00*
G04 #@! TF.ProjectId,180V power supply,31383056-2070-46f7-9765-722073757070,rev?*
G04 #@! TF.SameCoordinates,Original*
G04 #@! TF.FileFunction,Soldermask,Top*
G04 #@! TF.FilePolarity,Negative*
%FSLAX46Y46*%
G04 Gerber Fmt 4.6, Leading zero omitted, Abs format (unit mm)*
G04 Created by KiCad (PCBNEW 5.1.5+dfsg1-2build2) date 2021-09-03 15:27:24*
%MOMM*%
%LPD*%
G04 APERTURE LIST*
%ADD10O,1.700000X1.700000*%
%ADD11R,1.700000X1.700000*%
%ADD12C,2.400000*%
%ADD13C,3.200000*%
%ADD14C,1.600000*%
%ADD15C,0.100000*%
%ADD16R,1.300000X1.700000*%
%ADD17R,2.200000X2.200000*%
%ADD18O,2.200000X2.200000*%
%ADD19C,1.500000*%
%ADD20R,2.000000X1.905000*%
%ADD21O,2.000000X1.905000*%
%ADD22C,2.600000*%
G04 APERTURE END LIST*
D10*
X109500000Y-72040000D03*
D11*
X109500000Y-69500000D03*
X65532000Y-72000000D03*
D10*
X65532000Y-69460000D03*
D12*
X101250000Y-59944000D03*
X73750000Y-59944000D03*
D13*
X107696000Y-82804000D03*
X67564000Y-82804000D03*
X107696000Y-58420000D03*
X67564000Y-58420000D03*
D14*
X69900000Y-69500000D03*
X69900000Y-67000000D03*
D15*
G36*
X81330142Y-64301174D02*
G01*
X81353803Y-64304684D01*
X81377007Y-64310496D01*
X81399529Y-64318554D01*
X81421153Y-64328782D01*
X81441670Y-64341079D01*
X81460883Y-64355329D01*
X81478607Y-64371393D01*
X81494671Y-64389117D01*
X81508921Y-64408330D01*
X81521218Y-64428847D01*
X81531446Y-64450471D01*
X81539504Y-64472993D01*
X81545316Y-64496197D01*
X81548826Y-64519858D01*
X81550000Y-64543750D01*
X81550000Y-65456250D01*
X81548826Y-65480142D01*
X81545316Y-65503803D01*
X81539504Y-65527007D01*
X81531446Y-65549529D01*
X81521218Y-65571153D01*
X81508921Y-65591670D01*
X81494671Y-65610883D01*
X81478607Y-65628607D01*
X81460883Y-65644671D01*
X81441670Y-65658921D01*
X81421153Y-65671218D01*
X81399529Y-65681446D01*
X81377007Y-65689504D01*
X81353803Y-65695316D01*
X81330142Y-65698826D01*
X81306250Y-65700000D01*
X80818750Y-65700000D01*
X80794858Y-65698826D01*
X80771197Y-65695316D01*
X80747993Y-65689504D01*
X80725471Y-65681446D01*
X80703847Y-65671218D01*
X80683330Y-65658921D01*
X80664117Y-65644671D01*
X80646393Y-65628607D01*
X80630329Y-65610883D01*
X80616079Y-65591670D01*
X80603782Y-65571153D01*
X80593554Y-65549529D01*
X80585496Y-65527007D01*
X80579684Y-65503803D01*
X80576174Y-65480142D01*
X80575000Y-65456250D01*
X80575000Y-64543750D01*
X80576174Y-64519858D01*
X80579684Y-64496197D01*
X80585496Y-64472993D01*
X80593554Y-64450471D01*
X80603782Y-64428847D01*
X80616079Y-64408330D01*
X80630329Y-64389117D01*
X80646393Y-64371393D01*
X80664117Y-64355329D01*
X80683330Y-64341079D01*
X80703847Y-64328782D01*
X80725471Y-64318554D01*
X80747993Y-64310496D01*
X80771197Y-64304684D01*
X80794858Y-64301174D01*
X80818750Y-64300000D01*
X81306250Y-64300000D01*
X81330142Y-64301174D01*
G37*
G36*
X83205142Y-64301174D02*
G01*
X83228803Y-64304684D01*
X83252007Y-64310496D01*
X83274529Y-64318554D01*
X83296153Y-64328782D01*
X83316670Y-64341079D01*
X83335883Y-64355329D01*
X83353607Y-64371393D01*
X83369671Y-64389117D01*
X83383921Y-64408330D01*
X83396218Y-64428847D01*
X83406446Y-64450471D01*
X83414504Y-64472993D01*
X83420316Y-64496197D01*
X83423826Y-64519858D01*
X83425000Y-64543750D01*
X83425000Y-65456250D01*
X83423826Y-65480142D01*
X83420316Y-65503803D01*
X83414504Y-65527007D01*
X83406446Y-65549529D01*
X83396218Y-65571153D01*
X83383921Y-65591670D01*
X83369671Y-65610883D01*
X83353607Y-65628607D01*
X83335883Y-65644671D01*
X83316670Y-65658921D01*
X83296153Y-65671218D01*
X83274529Y-65681446D01*
X83252007Y-65689504D01*
X83228803Y-65695316D01*
X83205142Y-65698826D01*
X83181250Y-65700000D01*
X82693750Y-65700000D01*
X82669858Y-65698826D01*
X82646197Y-65695316D01*
X82622993Y-65689504D01*
X82600471Y-65681446D01*
X82578847Y-65671218D01*
X82558330Y-65658921D01*
X82539117Y-65644671D01*
X82521393Y-65628607D01*
X82505329Y-65610883D01*
X82491079Y-65591670D01*
X82478782Y-65571153D01*
X82468554Y-65549529D01*
X82460496Y-65527007D01*
X82454684Y-65503803D01*
X82451174Y-65480142D01*
X82450000Y-65456250D01*
X82450000Y-64543750D01*
X82451174Y-64519858D01*
X82454684Y-64496197D01*
X82460496Y-64472993D01*
X82468554Y-64450471D01*
X82478782Y-64428847D01*
X82491079Y-64408330D01*
X82505329Y-64389117D01*
X82521393Y-64371393D01*
X82539117Y-64355329D01*
X82558330Y-64341079D01*
X82578847Y-64328782D01*
X82600471Y-64318554D01*
X82622993Y-64310496D01*
X82646197Y-64304684D01*
X82669858Y-64301174D01*
X82693750Y-64300000D01*
X83181250Y-64300000D01*
X83205142Y-64301174D01*
G37*
G36*
X77330142Y-77301174D02*
G01*
X77353803Y-77304684D01*
X77377007Y-77310496D01*
X77399529Y-77318554D01*
X77421153Y-77328782D01*
X77441670Y-77341079D01*
X77460883Y-77355329D01*
X77478607Y-77371393D01*
X77494671Y-77389117D01*
X77508921Y-77408330D01*
X77521218Y-77428847D01*
X77531446Y-77450471D01*
X77539504Y-77472993D01*
X77545316Y-77496197D01*
X77548826Y-77519858D01*
X77550000Y-77543750D01*
X77550000Y-78456250D01*
X77548826Y-78480142D01*
X77545316Y-78503803D01*
X77539504Y-78527007D01*
X77531446Y-78549529D01*
X77521218Y-78571153D01*
X77508921Y-78591670D01*
X77494671Y-78610883D01*
X77478607Y-78628607D01*
X77460883Y-78644671D01*
X77441670Y-78658921D01*
X77421153Y-78671218D01*
X77399529Y-78681446D01*
X77377007Y-78689504D01*
X77353803Y-78695316D01*
X77330142Y-78698826D01*
X77306250Y-78700000D01*
X76818750Y-78700000D01*
X76794858Y-78698826D01*
X76771197Y-78695316D01*
X76747993Y-78689504D01*
X76725471Y-78681446D01*
X76703847Y-78671218D01*
X76683330Y-78658921D01*
X76664117Y-78644671D01*
X76646393Y-78628607D01*
X76630329Y-78610883D01*
X76616079Y-78591670D01*
X76603782Y-78571153D01*
X76593554Y-78549529D01*
X76585496Y-78527007D01*
X76579684Y-78503803D01*
X76576174Y-78480142D01*
X76575000Y-78456250D01*
X76575000Y-77543750D01*
X76576174Y-77519858D01*
X76579684Y-77496197D01*
X76585496Y-77472993D01*
X76593554Y-77450471D01*
X76603782Y-77428847D01*
X76616079Y-77408330D01*
X76630329Y-77389117D01*
X76646393Y-77371393D01*
X76664117Y-77355329D01*
X76683330Y-77341079D01*
X76703847Y-77328782D01*
X76725471Y-77318554D01*
X76747993Y-77310496D01*
X76771197Y-77304684D01*
X76794858Y-77301174D01*
X76818750Y-77300000D01*
X77306250Y-77300000D01*
X77330142Y-77301174D01*
G37*
G36*
X79205142Y-77301174D02*
G01*
X79228803Y-77304684D01*
X79252007Y-77310496D01*
X79274529Y-77318554D01*
X79296153Y-77328782D01*
X79316670Y-77341079D01*
X79335883Y-77355329D01*
X79353607Y-77371393D01*
X79369671Y-77389117D01*
X79383921Y-77408330D01*
X79396218Y-77428847D01*
X79406446Y-77450471D01*
X79414504Y-77472993D01*
X79420316Y-77496197D01*
X79423826Y-77519858D01*
X79425000Y-77543750D01*
X79425000Y-78456250D01*
X79423826Y-78480142D01*
X79420316Y-78503803D01*
X79414504Y-78527007D01*
X79406446Y-78549529D01*
X79396218Y-78571153D01*
X79383921Y-78591670D01*
X79369671Y-78610883D01*
X79353607Y-78628607D01*
X79335883Y-78644671D01*
X79316670Y-78658921D01*
X79296153Y-78671218D01*
X79274529Y-78681446D01*
X79252007Y-78689504D01*
X79228803Y-78695316D01*
X79205142Y-78698826D01*
X79181250Y-78700000D01*
X78693750Y-78700000D01*
X78669858Y-78698826D01*
X78646197Y-78695316D01*
X78622993Y-78689504D01*
X78600471Y-78681446D01*
X78578847Y-78671218D01*
X78558330Y-78658921D01*
X78539117Y-78644671D01*
X78521393Y-78628607D01*
X78505329Y-78610883D01*
X78491079Y-78591670D01*
X78478782Y-78571153D01*
X78468554Y-78549529D01*
X78460496Y-78527007D01*
X78454684Y-78503803D01*
X78451174Y-78480142D01*
X78450000Y-78456250D01*
X78450000Y-77543750D01*
X78451174Y-77519858D01*
X78454684Y-77496197D01*
X78460496Y-77472993D01*
X78468554Y-77450471D01*
X78478782Y-77428847D01*
X78491079Y-77408330D01*
X78505329Y-77389117D01*
X78521393Y-77371393D01*
X78539117Y-77355329D01*
X78558330Y-77341079D01*
X78578847Y-77328782D01*
X78600471Y-77318554D01*
X78622993Y-77310496D01*
X78646197Y-77304684D01*
X78669858Y-77301174D01*
X78693750Y-77300000D01*
X79181250Y-77300000D01*
X79205142Y-77301174D01*
G37*
D16*
X85250000Y-81000000D03*
X81750000Y-81000000D03*
D17*
X104600000Y-62200000D03*
D18*
X104600000Y-72360000D03*
D19*
X82600000Y-75300000D03*
X84396051Y-77096051D03*
D15*
G36*
X80803949Y-74564609D02*
G01*
X79743289Y-73503949D01*
X80803949Y-72443289D01*
X81864609Y-73503949D01*
X80803949Y-74564609D01*
G37*
D20*
X100000000Y-80000000D03*
D21*
X100000000Y-77460000D03*
X100000000Y-74920000D03*
D15*
G36*
X83799504Y-66626204D02*
G01*
X83823773Y-66629804D01*
X83847571Y-66635765D01*
X83870671Y-66644030D01*
X83892849Y-66654520D01*
X83913893Y-66667133D01*
X83933598Y-66681747D01*
X83951777Y-66698223D01*
X83968253Y-66716402D01*
X83982867Y-66736107D01*
X83995480Y-66757151D01*
X84005970Y-66779329D01*
X84014235Y-66802429D01*
X84020196Y-66826227D01*
X84023796Y-66850496D01*
X84025000Y-66875000D01*
X84025000Y-68125000D01*
X84023796Y-68149504D01*
X84020196Y-68173773D01*
X84014235Y-68197571D01*
X84005970Y-68220671D01*
X83995480Y-68242849D01*
X83982867Y-68263893D01*
X83968253Y-68283598D01*
X83951777Y-68301777D01*
X83933598Y-68318253D01*
X83913893Y-68332867D01*
X83892849Y-68345480D01*
X83870671Y-68355970D01*
X83847571Y-68364235D01*
X83823773Y-68370196D01*
X83799504Y-68373796D01*
X83775000Y-68375000D01*
X83025000Y-68375000D01*
X83000496Y-68373796D01*
X82976227Y-68370196D01*
X82952429Y-68364235D01*
X82929329Y-68355970D01*
X82907151Y-68345480D01*
X82886107Y-68332867D01*
X82866402Y-68318253D01*
X82848223Y-68301777D01*
X82831747Y-68283598D01*
X82817133Y-68263893D01*
X82804520Y-68242849D01*
X82794030Y-68220671D01*
X82785765Y-68197571D01*
X82779804Y-68173773D01*
X82776204Y-68149504D01*
X82775000Y-68125000D01*
X82775000Y-66875000D01*
X82776204Y-66850496D01*
X82779804Y-66826227D01*
X82785765Y-66802429D01*
X82794030Y-66779329D01*
X82804520Y-66757151D01*
X82817133Y-66736107D01*
X82831747Y-66716402D01*
X82848223Y-66698223D01*
X82866402Y-66681747D01*
X82886107Y-66667133D01*
X82907151Y-66654520D01*
X82929329Y-66644030D01*
X82952429Y-66635765D01*
X82976227Y-66629804D01*
X83000496Y-66626204D01*
X83025000Y-66625000D01*
X83775000Y-66625000D01*
X83799504Y-66626204D01*
G37*
G36*
X80999504Y-66626204D02*
G01*
X81023773Y-66629804D01*
X81047571Y-66635765D01*
X81070671Y-66644030D01*
X81092849Y-66654520D01*
X81113893Y-66667133D01*
X81133598Y-66681747D01*
X81151777Y-66698223D01*
X81168253Y-66716402D01*
X81182867Y-66736107D01*
X81195480Y-66757151D01*
X81205970Y-66779329D01*
X81214235Y-66802429D01*
X81220196Y-66826227D01*
X81223796Y-66850496D01*
X81225000Y-66875000D01*
X81225000Y-68125000D01*
X81223796Y-68149504D01*
X81220196Y-68173773D01*
X81214235Y-68197571D01*
X81205970Y-68220671D01*
X81195480Y-68242849D01*
X81182867Y-68263893D01*
X81168253Y-68283598D01*
X81151777Y-68301777D01*
X81133598Y-68318253D01*
X81113893Y-68332867D01*
X81092849Y-68345480D01*
X81070671Y-68355970D01*
X81047571Y-68364235D01*
X81023773Y-68370196D01*
X80999504Y-68373796D01*
X80975000Y-68375000D01*
X80225000Y-68375000D01*
X80200496Y-68373796D01*
X80176227Y-68370196D01*
X80152429Y-68364235D01*
X80129329Y-68355970D01*
X80107151Y-68345480D01*
X80086107Y-68332867D01*
X80066402Y-68318253D01*
X80048223Y-68301777D01*
X80031747Y-68283598D01*
X80017133Y-68263893D01*
X80004520Y-68242849D01*
X79994030Y-68220671D01*
X79985765Y-68197571D01*
X79979804Y-68173773D01*
X79976204Y-68149504D01*
X79975000Y-68125000D01*
X79975000Y-66875000D01*
X79976204Y-66850496D01*
X79979804Y-66826227D01*
X79985765Y-66802429D01*
X79994030Y-66779329D01*
X80004520Y-66757151D01*
X80017133Y-66736107D01*
X80031747Y-66716402D01*
X80048223Y-66698223D01*
X80066402Y-66681747D01*
X80086107Y-66667133D01*
X80107151Y-66654520D01*
X80129329Y-66644030D01*
X80152429Y-66635765D01*
X80176227Y-66629804D01*
X80200496Y-66626204D01*
X80225000Y-66625000D01*
X80975000Y-66625000D01*
X80999504Y-66626204D01*
G37*
G36*
X77299504Y-66626204D02*
G01*
X77323773Y-66629804D01*
X77347571Y-66635765D01*
X77370671Y-66644030D01*
X77392849Y-66654520D01*
X77413893Y-66667133D01*
X77433598Y-66681747D01*
X77451777Y-66698223D01*
X77468253Y-66716402D01*
X77482867Y-66736107D01*
X77495480Y-66757151D01*
X77505970Y-66779329D01*
X77514235Y-66802429D01*
X77520196Y-66826227D01*
X77523796Y-66850496D01*
X77525000Y-66875000D01*
X77525000Y-68125000D01*
X77523796Y-68149504D01*
X77520196Y-68173773D01*
X77514235Y-68197571D01*
X77505970Y-68220671D01*
X77495480Y-68242849D01*
X77482867Y-68263893D01*
X77468253Y-68283598D01*
X77451777Y-68301777D01*
X77433598Y-68318253D01*
X77413893Y-68332867D01*
X77392849Y-68345480D01*
X77370671Y-68355970D01*
X77347571Y-68364235D01*
X77323773Y-68370196D01*
X77299504Y-68373796D01*
X77275000Y-68375000D01*
X76525000Y-68375000D01*
X76500496Y-68373796D01*
X76476227Y-68370196D01*
X76452429Y-68364235D01*
X76429329Y-68355970D01*
X76407151Y-68345480D01*
X76386107Y-68332867D01*
X76366402Y-68318253D01*
X76348223Y-68301777D01*
X76331747Y-68283598D01*
X76317133Y-68263893D01*
X76304520Y-68242849D01*
X76294030Y-68220671D01*
X76285765Y-68197571D01*
X76279804Y-68173773D01*
X76276204Y-68149504D01*
X76275000Y-68125000D01*
X76275000Y-66875000D01*
X76276204Y-66850496D01*
X76279804Y-66826227D01*
X76285765Y-66802429D01*
X76294030Y-66779329D01*
X76304520Y-66757151D01*
X76317133Y-66736107D01*
X76331747Y-66716402D01*
X76348223Y-66698223D01*
X76366402Y-66681747D01*
X76386107Y-66667133D01*
X76407151Y-66654520D01*
X76429329Y-66644030D01*
X76452429Y-66635765D01*
X76476227Y-66629804D01*
X76500496Y-66626204D01*
X76525000Y-66625000D01*
X77275000Y-66625000D01*
X77299504Y-66626204D01*
G37*
G36*
X74499504Y-66626204D02*
G01*
X74523773Y-66629804D01*
X74547571Y-66635765D01*
X74570671Y-66644030D01*
X74592849Y-66654520D01*
X74613893Y-66667133D01*
X74633598Y-66681747D01*
X74651777Y-66698223D01*
X74668253Y-66716402D01*
X74682867Y-66736107D01*
X74695480Y-66757151D01*
X74705970Y-66779329D01*
X74714235Y-66802429D01*
X74720196Y-66826227D01*
X74723796Y-66850496D01*
X74725000Y-66875000D01*
X74725000Y-68125000D01*
X74723796Y-68149504D01*
X74720196Y-68173773D01*
X74714235Y-68197571D01*
X74705970Y-68220671D01*
X74695480Y-68242849D01*
X74682867Y-68263893D01*
X74668253Y-68283598D01*
X74651777Y-68301777D01*
X74633598Y-68318253D01*
X74613893Y-68332867D01*
X74592849Y-68345480D01*
X74570671Y-68355970D01*
X74547571Y-68364235D01*
X74523773Y-68370196D01*
X74499504Y-68373796D01*
X74475000Y-68375000D01*
X73725000Y-68375000D01*
X73700496Y-68373796D01*
X73676227Y-68370196D01*
X73652429Y-68364235D01*
X73629329Y-68355970D01*
X73607151Y-68345480D01*
X73586107Y-68332867D01*
X73566402Y-68318253D01*
X73548223Y-68301777D01*
X73531747Y-68283598D01*
X73517133Y-68263893D01*
X73504520Y-68242849D01*
X73494030Y-68220671D01*
X73485765Y-68197571D01*
X73479804Y-68173773D01*
X73476204Y-68149504D01*
X73475000Y-68125000D01*
X73475000Y-66875000D01*
X73476204Y-66850496D01*
X73479804Y-66826227D01*
X73485765Y-66802429D01*
X73494030Y-66779329D01*
X73504520Y-66757151D01*
X73517133Y-66736107D01*
X73531747Y-66716402D01*
X73548223Y-66698223D01*
X73566402Y-66681747D01*
X73586107Y-66667133D01*
X73607151Y-66654520D01*
X73629329Y-66644030D01*
X73652429Y-66635765D01*
X73676227Y-66629804D01*
X73700496Y-66626204D01*
X73725000Y-66625000D01*
X74475000Y-66625000D01*
X74499504Y-66626204D01*
G37*
G36*
X86499504Y-66626204D02*
G01*
X86523773Y-66629804D01*
X86547571Y-66635765D01*
X86570671Y-66644030D01*
X86592849Y-66654520D01*
X86613893Y-66667133D01*
X86633598Y-66681747D01*
X86651777Y-66698223D01*
X86668253Y-66716402D01*
X86682867Y-66736107D01*
X86695480Y-66757151D01*
X86705970Y-66779329D01*
X86714235Y-66802429D01*
X86720196Y-66826227D01*
X86723796Y-66850496D01*
X86725000Y-66875000D01*
X86725000Y-68125000D01*
X86723796Y-68149504D01*
X86720196Y-68173773D01*
X86714235Y-68197571D01*
X86705970Y-68220671D01*
X86695480Y-68242849D01*
X86682867Y-68263893D01*
X86668253Y-68283598D01*
X86651777Y-68301777D01*
X86633598Y-68318253D01*
X86613893Y-68332867D01*
X86592849Y-68345480D01*
X86570671Y-68355970D01*
X86547571Y-68364235D01*
X86523773Y-68370196D01*
X86499504Y-68373796D01*
X86475000Y-68375000D01*
X85725000Y-68375000D01*
X85700496Y-68373796D01*
X85676227Y-68370196D01*
X85652429Y-68364235D01*
X85629329Y-68355970D01*
X85607151Y-68345480D01*
X85586107Y-68332867D01*
X85566402Y-68318253D01*
X85548223Y-68301777D01*
X85531747Y-68283598D01*
X85517133Y-68263893D01*
X85504520Y-68242849D01*
X85494030Y-68220671D01*
X85485765Y-68197571D01*
X85479804Y-68173773D01*
X85476204Y-68149504D01*
X85475000Y-68125000D01*
X85475000Y-66875000D01*
X85476204Y-66850496D01*
X85479804Y-66826227D01*
X85485765Y-66802429D01*
X85494030Y-66779329D01*
X85504520Y-66757151D01*
X85517133Y-66736107D01*
X85531747Y-66716402D01*
X85548223Y-66698223D01*
X85566402Y-66681747D01*
X85586107Y-66667133D01*
X85607151Y-66654520D01*
X85629329Y-66644030D01*
X85652429Y-66635765D01*
X85676227Y-66629804D01*
X85700496Y-66626204D01*
X85725000Y-66625000D01*
X86475000Y-66625000D01*
X86499504Y-66626204D01*
G37*
G36*
X89299504Y-66626204D02*
G01*
X89323773Y-66629804D01*
X89347571Y-66635765D01*
X89370671Y-66644030D01*
X89392849Y-66654520D01*
X89413893Y-66667133D01*
X89433598Y-66681747D01*
X89451777Y-66698223D01*
X89468253Y-66716402D01*
X89482867Y-66736107D01*
X89495480Y-66757151D01*
X89505970Y-66779329D01*
X89514235Y-66802429D01*
X89520196Y-66826227D01*
X89523796Y-66850496D01*
X89525000Y-66875000D01*
X89525000Y-68125000D01*
X89523796Y-68149504D01*
X89520196Y-68173773D01*
X89514235Y-68197571D01*
X89505970Y-68220671D01*
X89495480Y-68242849D01*
X89482867Y-68263893D01*
X89468253Y-68283598D01*
X89451777Y-68301777D01*
X89433598Y-68318253D01*
X89413893Y-68332867D01*
X89392849Y-68345480D01*
X89370671Y-68355970D01*
X89347571Y-68364235D01*
X89323773Y-68370196D01*
X89299504Y-68373796D01*
X89275000Y-68375000D01*
X88525000Y-68375000D01*
X88500496Y-68373796D01*
X88476227Y-68370196D01*
X88452429Y-68364235D01*
X88429329Y-68355970D01*
X88407151Y-68345480D01*
X88386107Y-68332867D01*
X88366402Y-68318253D01*
X88348223Y-68301777D01*
X88331747Y-68283598D01*
X88317133Y-68263893D01*
X88304520Y-68242849D01*
X88294030Y-68220671D01*
X88285765Y-68197571D01*
X88279804Y-68173773D01*
X88276204Y-68149504D01*
X88275000Y-68125000D01*
X88275000Y-66875000D01*
X88276204Y-66850496D01*
X88279804Y-66826227D01*
X88285765Y-66802429D01*
X88294030Y-66779329D01*
X88304520Y-66757151D01*
X88317133Y-66736107D01*
X88331747Y-66716402D01*
X88348223Y-66698223D01*
X88366402Y-66681747D01*
X88386107Y-66667133D01*
X88407151Y-66654520D01*
X88429329Y-66644030D01*
X88452429Y-66635765D01*
X88476227Y-66629804D01*
X88500496Y-66626204D01*
X88525000Y-66625000D01*
X89275000Y-66625000D01*
X89299504Y-66626204D01*
G37*
G36*
X94799504Y-66626204D02*
G01*
X94823773Y-66629804D01*
X94847571Y-66635765D01*
X94870671Y-66644030D01*
X94892849Y-66654520D01*
X94913893Y-66667133D01*
X94933598Y-66681747D01*
X94951777Y-66698223D01*
X94968253Y-66716402D01*
X94982867Y-66736107D01*
X94995480Y-66757151D01*
X95005970Y-66779329D01*
X95014235Y-66802429D01*
X95020196Y-66826227D01*
X95023796Y-66850496D01*
X95025000Y-66875000D01*
X95025000Y-68125000D01*
X95023796Y-68149504D01*
X95020196Y-68173773D01*
X95014235Y-68197571D01*
X95005970Y-68220671D01*
X94995480Y-68242849D01*
X94982867Y-68263893D01*
X94968253Y-68283598D01*
X94951777Y-68301777D01*
X94933598Y-68318253D01*
X94913893Y-68332867D01*
X94892849Y-68345480D01*
X94870671Y-68355970D01*
X94847571Y-68364235D01*
X94823773Y-68370196D01*
X94799504Y-68373796D01*
X94775000Y-68375000D01*
X94025000Y-68375000D01*
X94000496Y-68373796D01*
X93976227Y-68370196D01*
X93952429Y-68364235D01*
X93929329Y-68355970D01*
X93907151Y-68345480D01*
X93886107Y-68332867D01*
X93866402Y-68318253D01*
X93848223Y-68301777D01*
X93831747Y-68283598D01*
X93817133Y-68263893D01*
X93804520Y-68242849D01*
X93794030Y-68220671D01*
X93785765Y-68197571D01*
X93779804Y-68173773D01*
X93776204Y-68149504D01*
X93775000Y-68125000D01*
X93775000Y-66875000D01*
X93776204Y-66850496D01*
X93779804Y-66826227D01*
X93785765Y-66802429D01*
X93794030Y-66779329D01*
X93804520Y-66757151D01*
X93817133Y-66736107D01*
X93831747Y-66716402D01*
X93848223Y-66698223D01*
X93866402Y-66681747D01*
X93886107Y-66667133D01*
X93907151Y-66654520D01*
X93929329Y-66644030D01*
X93952429Y-66635765D01*
X93976227Y-66629804D01*
X94000496Y-66626204D01*
X94025000Y-66625000D01*
X94775000Y-66625000D01*
X94799504Y-66626204D01*
G37*
G36*
X91999504Y-66626204D02*
G01*
X92023773Y-66629804D01*
X92047571Y-66635765D01*
X92070671Y-66644030D01*
X92092849Y-66654520D01*
X92113893Y-66667133D01*
X92133598Y-66681747D01*
X92151777Y-66698223D01*
X92168253Y-66716402D01*
X92182867Y-66736107D01*
X92195480Y-66757151D01*
X92205970Y-66779329D01*
X92214235Y-66802429D01*
X92220196Y-66826227D01*
X92223796Y-66850496D01*
X92225000Y-66875000D01*
X92225000Y-68125000D01*
X92223796Y-68149504D01*
X92220196Y-68173773D01*
X92214235Y-68197571D01*
X92205970Y-68220671D01*
X92195480Y-68242849D01*
X92182867Y-68263893D01*
X92168253Y-68283598D01*
X92151777Y-68301777D01*
X92133598Y-68318253D01*
X92113893Y-68332867D01*
X92092849Y-68345480D01*
X92070671Y-68355970D01*
X92047571Y-68364235D01*
X92023773Y-68370196D01*
X91999504Y-68373796D01*
X91975000Y-68375000D01*
X91225000Y-68375000D01*
X91200496Y-68373796D01*
X91176227Y-68370196D01*
X91152429Y-68364235D01*
X91129329Y-68355970D01*
X91107151Y-68345480D01*
X91086107Y-68332867D01*
X91066402Y-68318253D01*
X91048223Y-68301777D01*
X91031747Y-68283598D01*
X91017133Y-68263893D01*
X91004520Y-68242849D01*
X90994030Y-68220671D01*
X90985765Y-68197571D01*
X90979804Y-68173773D01*
X90976204Y-68149504D01*
X90975000Y-68125000D01*
X90975000Y-66875000D01*
X90976204Y-66850496D01*
X90979804Y-66826227D01*
X90985765Y-66802429D01*
X90994030Y-66779329D01*
X91004520Y-66757151D01*
X91017133Y-66736107D01*
X91031747Y-66716402D01*
X91048223Y-66698223D01*
X91066402Y-66681747D01*
X91086107Y-66667133D01*
X91107151Y-66654520D01*
X91129329Y-66644030D01*
X91152429Y-66635765D01*
X91176227Y-66629804D01*
X91200496Y-66626204D01*
X91225000Y-66625000D01*
X91975000Y-66625000D01*
X91999504Y-66626204D01*
G37*
G36*
X97499504Y-66626204D02*
G01*
X97523773Y-66629804D01*
X97547571Y-66635765D01*
X97570671Y-66644030D01*
X97592849Y-66654520D01*
X97613893Y-66667133D01*
X97633598Y-66681747D01*
X97651777Y-66698223D01*
X97668253Y-66716402D01*
X97682867Y-66736107D01*
X97695480Y-66757151D01*
X97705970Y-66779329D01*
X97714235Y-66802429D01*
X97720196Y-66826227D01*
X97723796Y-66850496D01*
X97725000Y-66875000D01*
X97725000Y-68125000D01*
X97723796Y-68149504D01*
X97720196Y-68173773D01*
X97714235Y-68197571D01*
X97705970Y-68220671D01*
X97695480Y-68242849D01*
X97682867Y-68263893D01*
X97668253Y-68283598D01*
X97651777Y-68301777D01*
X97633598Y-68318253D01*
X97613893Y-68332867D01*
X97592849Y-68345480D01*
X97570671Y-68355970D01*
X97547571Y-68364235D01*
X97523773Y-68370196D01*
X97499504Y-68373796D01*
X97475000Y-68375000D01*
X96725000Y-68375000D01*
X96700496Y-68373796D01*
X96676227Y-68370196D01*
X96652429Y-68364235D01*
X96629329Y-68355970D01*
X96607151Y-68345480D01*
X96586107Y-68332867D01*
X96566402Y-68318253D01*
X96548223Y-68301777D01*
X96531747Y-68283598D01*
X96517133Y-68263893D01*
X96504520Y-68242849D01*
X96494030Y-68220671D01*
X96485765Y-68197571D01*
X96479804Y-68173773D01*
X96476204Y-68149504D01*
X96475000Y-68125000D01*
X96475000Y-66875000D01*
X96476204Y-66850496D01*
X96479804Y-66826227D01*
X96485765Y-66802429D01*
X96494030Y-66779329D01*
X96504520Y-66757151D01*
X96517133Y-66736107D01*
X96531747Y-66716402D01*
X96548223Y-66698223D01*
X96566402Y-66681747D01*
X96586107Y-66667133D01*
X96607151Y-66654520D01*
X96629329Y-66644030D01*
X96652429Y-66635765D01*
X96676227Y-66629804D01*
X96700496Y-66626204D01*
X96725000Y-66625000D01*
X97475000Y-66625000D01*
X97499504Y-66626204D01*
G37*
G36*
X100299504Y-66626204D02*
G01*
X100323773Y-66629804D01*
X100347571Y-66635765D01*
X100370671Y-66644030D01*
X100392849Y-66654520D01*
X100413893Y-66667133D01*
X100433598Y-66681747D01*
X100451777Y-66698223D01*
X100468253Y-66716402D01*
X100482867Y-66736107D01*
X100495480Y-66757151D01*
X100505970Y-66779329D01*
X100514235Y-66802429D01*
X100520196Y-66826227D01*
X100523796Y-66850496D01*
X100525000Y-66875000D01*
X100525000Y-68125000D01*
X100523796Y-68149504D01*
X100520196Y-68173773D01*
X100514235Y-68197571D01*
X100505970Y-68220671D01*
X100495480Y-68242849D01*
X100482867Y-68263893D01*
X100468253Y-68283598D01*
X100451777Y-68301777D01*
X100433598Y-68318253D01*
X100413893Y-68332867D01*
X100392849Y-68345480D01*
X100370671Y-68355970D01*
X100347571Y-68364235D01*
X100323773Y-68370196D01*
X100299504Y-68373796D01*
X100275000Y-68375000D01*
X99525000Y-68375000D01*
X99500496Y-68373796D01*
X99476227Y-68370196D01*
X99452429Y-68364235D01*
X99429329Y-68355970D01*
X99407151Y-68345480D01*
X99386107Y-68332867D01*
X99366402Y-68318253D01*
X99348223Y-68301777D01*
X99331747Y-68283598D01*
X99317133Y-68263893D01*
X99304520Y-68242849D01*
X99294030Y-68220671D01*
X99285765Y-68197571D01*
X99279804Y-68173773D01*
X99276204Y-68149504D01*
X99275000Y-68125000D01*
X99275000Y-66875000D01*
X99276204Y-66850496D01*
X99279804Y-66826227D01*
X99285765Y-66802429D01*
X99294030Y-66779329D01*
X99304520Y-66757151D01*
X99317133Y-66736107D01*
X99331747Y-66716402D01*
X99348223Y-66698223D01*
X99366402Y-66681747D01*
X99386107Y-66667133D01*
X99407151Y-66654520D01*
X99429329Y-66644030D01*
X99452429Y-66635765D01*
X99476227Y-66629804D01*
X99500496Y-66626204D01*
X99525000Y-66625000D01*
X100275000Y-66625000D01*
X100299504Y-66626204D01*
G37*
G36*
X75999504Y-80126204D02*
G01*
X76023773Y-80129804D01*
X76047571Y-80135765D01*
X76070671Y-80144030D01*
X76092849Y-80154520D01*
X76113893Y-80167133D01*
X76133598Y-80181747D01*
X76151777Y-80198223D01*
X76168253Y-80216402D01*
X76182867Y-80236107D01*
X76195480Y-80257151D01*
X76205970Y-80279329D01*
X76214235Y-80302429D01*
X76220196Y-80326227D01*
X76223796Y-80350496D01*
X76225000Y-80375000D01*
X76225000Y-81625000D01*
X76223796Y-81649504D01*
X76220196Y-81673773D01*
X76214235Y-81697571D01*
X76205970Y-81720671D01*
X76195480Y-81742849D01*
X76182867Y-81763893D01*
X76168253Y-81783598D01*
X76151777Y-81801777D01*
X76133598Y-81818253D01*
X76113893Y-81832867D01*
X76092849Y-81845480D01*
X76070671Y-81855970D01*
X76047571Y-81864235D01*
X76023773Y-81870196D01*
X75999504Y-81873796D01*
X75975000Y-81875000D01*
X75225000Y-81875000D01*
X75200496Y-81873796D01*
X75176227Y-81870196D01*
X75152429Y-81864235D01*
X75129329Y-81855970D01*
X75107151Y-81845480D01*
X75086107Y-81832867D01*
X75066402Y-81818253D01*
X75048223Y-81801777D01*
X75031747Y-81783598D01*
X75017133Y-81763893D01*
X75004520Y-81742849D01*
X74994030Y-81720671D01*
X74985765Y-81697571D01*
X74979804Y-81673773D01*
X74976204Y-81649504D01*
X74975000Y-81625000D01*
X74975000Y-80375000D01*
X74976204Y-80350496D01*
X74979804Y-80326227D01*
X74985765Y-80302429D01*
X74994030Y-80279329D01*
X75004520Y-80257151D01*
X75017133Y-80236107D01*
X75031747Y-80216402D01*
X75048223Y-80198223D01*
X75066402Y-80181747D01*
X75086107Y-80167133D01*
X75107151Y-80154520D01*
X75129329Y-80144030D01*
X75152429Y-80135765D01*
X75176227Y-80129804D01*
X75200496Y-80126204D01*
X75225000Y-80125000D01*
X75975000Y-80125000D01*
X75999504Y-80126204D01*
G37*
G36*
X78799504Y-80126204D02*
G01*
X78823773Y-80129804D01*
X78847571Y-80135765D01*
X78870671Y-80144030D01*
X78892849Y-80154520D01*
X78913893Y-80167133D01*
X78933598Y-80181747D01*
X78951777Y-80198223D01*
X78968253Y-80216402D01*
X78982867Y-80236107D01*
X78995480Y-80257151D01*
X79005970Y-80279329D01*
X79014235Y-80302429D01*
X79020196Y-80326227D01*
X79023796Y-80350496D01*
X79025000Y-80375000D01*
X79025000Y-81625000D01*
X79023796Y-81649504D01*
X79020196Y-81673773D01*
X79014235Y-81697571D01*
X79005970Y-81720671D01*
X78995480Y-81742849D01*
X78982867Y-81763893D01*
X78968253Y-81783598D01*
X78951777Y-81801777D01*
X78933598Y-81818253D01*
X78913893Y-81832867D01*
X78892849Y-81845480D01*
X78870671Y-81855970D01*
X78847571Y-81864235D01*
X78823773Y-81870196D01*
X78799504Y-81873796D01*
X78775000Y-81875000D01*
X78025000Y-81875000D01*
X78000496Y-81873796D01*
X77976227Y-81870196D01*
X77952429Y-81864235D01*
X77929329Y-81855970D01*
X77907151Y-81845480D01*
X77886107Y-81832867D01*
X77866402Y-81818253D01*
X77848223Y-81801777D01*
X77831747Y-81783598D01*
X77817133Y-81763893D01*
X77804520Y-81742849D01*
X77794030Y-81720671D01*
X77785765Y-81697571D01*
X77779804Y-81673773D01*
X77776204Y-81649504D01*
X77775000Y-81625000D01*
X77775000Y-80375000D01*
X77776204Y-80350496D01*
X77779804Y-80326227D01*
X77785765Y-80302429D01*
X77794030Y-80279329D01*
X77804520Y-80257151D01*
X77817133Y-80236107D01*
X77831747Y-80216402D01*
X77848223Y-80198223D01*
X77866402Y-80181747D01*
X77886107Y-80167133D01*
X77907151Y-80154520D01*
X77929329Y-80144030D01*
X77952429Y-80135765D01*
X77976227Y-80129804D01*
X78000496Y-80126204D01*
X78025000Y-80125000D01*
X78775000Y-80125000D01*
X78799504Y-80126204D01*
G37*
G36*
X91699504Y-73726204D02*
G01*
X91723773Y-73729804D01*
X91747571Y-73735765D01*
X91770671Y-73744030D01*
X91792849Y-73754520D01*
X91813893Y-73767133D01*
X91833598Y-73781747D01*
X91851777Y-73798223D01*
X91868253Y-73816402D01*
X91882867Y-73836107D01*
X91895480Y-73857151D01*
X91905970Y-73879329D01*
X91914235Y-73902429D01*
X91920196Y-73926227D01*
X91923796Y-73950496D01*
X91925000Y-73975000D01*
X91925000Y-75225000D01*
X91923796Y-75249504D01*
X91920196Y-75273773D01*
X91914235Y-75297571D01*
X91905970Y-75320671D01*
X91895480Y-75342849D01*
X91882867Y-75363893D01*
X91868253Y-75383598D01*
X91851777Y-75401777D01*
X91833598Y-75418253D01*
X91813893Y-75432867D01*
X91792849Y-75445480D01*
X91770671Y-75455970D01*
X91747571Y-75464235D01*
X91723773Y-75470196D01*
X91699504Y-75473796D01*
X91675000Y-75475000D01*
X90925000Y-75475000D01*
X90900496Y-75473796D01*
X90876227Y-75470196D01*
X90852429Y-75464235D01*
X90829329Y-75455970D01*
X90807151Y-75445480D01*
X90786107Y-75432867D01*
X90766402Y-75418253D01*
X90748223Y-75401777D01*
X90731747Y-75383598D01*
X90717133Y-75363893D01*
X90704520Y-75342849D01*
X90694030Y-75320671D01*
X90685765Y-75297571D01*
X90679804Y-75273773D01*
X90676204Y-75249504D01*
X90675000Y-75225000D01*
X90675000Y-73975000D01*
X90676204Y-73950496D01*
X90679804Y-73926227D01*
X90685765Y-73902429D01*
X90694030Y-73879329D01*
X90704520Y-73857151D01*
X90717133Y-73836107D01*
X90731747Y-73816402D01*
X90748223Y-73798223D01*
X90766402Y-73781747D01*
X90786107Y-73767133D01*
X90807151Y-73754520D01*
X90829329Y-73744030D01*
X90852429Y-73735765D01*
X90876227Y-73729804D01*
X90900496Y-73726204D01*
X90925000Y-73725000D01*
X91675000Y-73725000D01*
X91699504Y-73726204D01*
G37*
G36*
X88899504Y-73726204D02*
G01*
X88923773Y-73729804D01*
X88947571Y-73735765D01*
X88970671Y-73744030D01*
X88992849Y-73754520D01*
X89013893Y-73767133D01*
X89033598Y-73781747D01*
X89051777Y-73798223D01*
X89068253Y-73816402D01*
X89082867Y-73836107D01*
X89095480Y-73857151D01*
X89105970Y-73879329D01*
X89114235Y-73902429D01*
X89120196Y-73926227D01*
X89123796Y-73950496D01*
X89125000Y-73975000D01*
X89125000Y-75225000D01*
X89123796Y-75249504D01*
X89120196Y-75273773D01*
X89114235Y-75297571D01*
X89105970Y-75320671D01*
X89095480Y-75342849D01*
X89082867Y-75363893D01*
X89068253Y-75383598D01*
X89051777Y-75401777D01*
X89033598Y-75418253D01*
X89013893Y-75432867D01*
X88992849Y-75445480D01*
X88970671Y-75455970D01*
X88947571Y-75464235D01*
X88923773Y-75470196D01*
X88899504Y-75473796D01*
X88875000Y-75475000D01*
X88125000Y-75475000D01*
X88100496Y-75473796D01*
X88076227Y-75470196D01*
X88052429Y-75464235D01*
X88029329Y-75455970D01*
X88007151Y-75445480D01*
X87986107Y-75432867D01*
X87966402Y-75418253D01*
X87948223Y-75401777D01*
X87931747Y-75383598D01*
X87917133Y-75363893D01*
X87904520Y-75342849D01*
X87894030Y-75320671D01*
X87885765Y-75297571D01*
X87879804Y-75273773D01*
X87876204Y-75249504D01*
X87875000Y-75225000D01*
X87875000Y-73975000D01*
X87876204Y-73950496D01*
X87879804Y-73926227D01*
X87885765Y-73902429D01*
X87894030Y-73879329D01*
X87904520Y-73857151D01*
X87917133Y-73836107D01*
X87931747Y-73816402D01*
X87948223Y-73798223D01*
X87966402Y-73781747D01*
X87986107Y-73767133D01*
X88007151Y-73754520D01*
X88029329Y-73744030D01*
X88052429Y-73735765D01*
X88076227Y-73729804D01*
X88100496Y-73726204D01*
X88125000Y-73725000D01*
X88875000Y-73725000D01*
X88899504Y-73726204D01*
G37*
G36*
X74259703Y-74500722D02*
G01*
X74274264Y-74502882D01*
X74288543Y-74506459D01*
X74302403Y-74511418D01*
X74315710Y-74517712D01*
X74328336Y-74525280D01*
X74340159Y-74534048D01*
X74351066Y-74543934D01*
X74360952Y-74554841D01*
X74369720Y-74566664D01*
X74377288Y-74579290D01*
X74383582Y-74592597D01*
X74388541Y-74606457D01*
X74392118Y-74620736D01*
X74394278Y-74635297D01*
X74395000Y-74650000D01*
X74395000Y-76300000D01*
X74394278Y-76314703D01*
X74392118Y-76329264D01*
X74388541Y-76343543D01*
X74383582Y-76357403D01*
X74377288Y-76370710D01*
X74369720Y-76383336D01*
X74360952Y-76395159D01*
X74351066Y-76406066D01*
X74340159Y-76415952D01*
X74328336Y-76424720D01*
X74315710Y-76432288D01*
X74302403Y-76438582D01*
X74288543Y-76443541D01*
X74274264Y-76447118D01*
X74259703Y-76449278D01*
X74245000Y-76450000D01*
X73945000Y-76450000D01*
X73930297Y-76449278D01*
X73915736Y-76447118D01*
X73901457Y-76443541D01*
X73887597Y-76438582D01*
X73874290Y-76432288D01*
X73861664Y-76424720D01*
X73849841Y-76415952D01*
X73838934Y-76406066D01*
X73829048Y-76395159D01*
X73820280Y-76383336D01*
X73812712Y-76370710D01*
X73806418Y-76357403D01*
X73801459Y-76343543D01*
X73797882Y-76329264D01*
X73795722Y-76314703D01*
X73795000Y-76300000D01*
X73795000Y-74650000D01*
X73795722Y-74635297D01*
X73797882Y-74620736D01*
X73801459Y-74606457D01*
X73806418Y-74592597D01*
X73812712Y-74579290D01*
X73820280Y-74566664D01*
X73829048Y-74554841D01*
X73838934Y-74543934D01*
X73849841Y-74534048D01*
X73861664Y-74525280D01*
X73874290Y-74517712D01*
X73887597Y-74511418D01*
X73901457Y-74506459D01*
X73915736Y-74502882D01*
X73930297Y-74500722D01*
X73945000Y-74500000D01*
X74245000Y-74500000D01*
X74259703Y-74500722D01*
G37*
G36*
X75529703Y-74500722D02*
G01*
X75544264Y-74502882D01*
X75558543Y-74506459D01*
X75572403Y-74511418D01*
X75585710Y-74517712D01*
X75598336Y-74525280D01*
X75610159Y-74534048D01*
X75621066Y-74543934D01*
X75630952Y-74554841D01*
X75639720Y-74566664D01*
X75647288Y-74579290D01*
X75653582Y-74592597D01*
X75658541Y-74606457D01*
X75662118Y-74620736D01*
X75664278Y-74635297D01*
X75665000Y-74650000D01*
X75665000Y-76300000D01*
X75664278Y-76314703D01*
X75662118Y-76329264D01*
X75658541Y-76343543D01*
X75653582Y-76357403D01*
X75647288Y-76370710D01*
X75639720Y-76383336D01*
X75630952Y-76395159D01*
X75621066Y-76406066D01*
X75610159Y-76415952D01*
X75598336Y-76424720D01*
X75585710Y-76432288D01*
X75572403Y-76438582D01*
X75558543Y-76443541D01*
X75544264Y-76447118D01*
X75529703Y-76449278D01*
X75515000Y-76450000D01*
X75215000Y-76450000D01*
X75200297Y-76449278D01*
X75185736Y-76447118D01*
X75171457Y-76443541D01*
X75157597Y-76438582D01*
X75144290Y-76432288D01*
X75131664Y-76424720D01*
X75119841Y-76415952D01*
X75108934Y-76406066D01*
X75099048Y-76395159D01*
X75090280Y-76383336D01*
X75082712Y-76370710D01*
X75076418Y-76357403D01*
X75071459Y-76343543D01*
X75067882Y-76329264D01*
X75065722Y-76314703D01*
X75065000Y-76300000D01*
X75065000Y-74650000D01*
X75065722Y-74635297D01*
X75067882Y-74620736D01*
X75071459Y-74606457D01*
X75076418Y-74592597D01*
X75082712Y-74579290D01*
X75090280Y-74566664D01*
X75099048Y-74554841D01*
X75108934Y-74543934D01*
X75119841Y-74534048D01*
X75131664Y-74525280D01*
X75144290Y-74517712D01*
X75157597Y-74511418D01*
X75171457Y-74506459D01*
X75185736Y-74502882D01*
X75200297Y-74500722D01*
X75215000Y-74500000D01*
X75515000Y-74500000D01*
X75529703Y-74500722D01*
G37*
G36*
X76799703Y-74500722D02*
G01*
X76814264Y-74502882D01*
X76828543Y-74506459D01*
X76842403Y-74511418D01*
X76855710Y-74517712D01*
X76868336Y-74525280D01*
X76880159Y-74534048D01*
X76891066Y-74543934D01*
X76900952Y-74554841D01*
X76909720Y-74566664D01*
X76917288Y-74579290D01*
X76923582Y-74592597D01*
X76928541Y-74606457D01*
X76932118Y-74620736D01*
X76934278Y-74635297D01*
X76935000Y-74650000D01*
X76935000Y-76300000D01*
X76934278Y-76314703D01*
X76932118Y-76329264D01*
X76928541Y-76343543D01*
X76923582Y-76357403D01*
X76917288Y-76370710D01*
X76909720Y-76383336D01*
X76900952Y-76395159D01*
X76891066Y-76406066D01*
X76880159Y-76415952D01*
X76868336Y-76424720D01*
X76855710Y-76432288D01*
X76842403Y-76438582D01*
X76828543Y-76443541D01*
X76814264Y-76447118D01*
X76799703Y-76449278D01*
X76785000Y-76450000D01*
X76485000Y-76450000D01*
X76470297Y-76449278D01*
X76455736Y-76447118D01*
X76441457Y-76443541D01*
X76427597Y-76438582D01*
X76414290Y-76432288D01*
X76401664Y-76424720D01*
X76389841Y-76415952D01*
X76378934Y-76406066D01*
X76369048Y-76395159D01*
X76360280Y-76383336D01*
X76352712Y-76370710D01*
X76346418Y-76357403D01*
X76341459Y-76343543D01*
X76337882Y-76329264D01*
X76335722Y-76314703D01*
X76335000Y-76300000D01*
X76335000Y-74650000D01*
X76335722Y-74635297D01*
X76337882Y-74620736D01*
X76341459Y-74606457D01*
X76346418Y-74592597D01*
X76352712Y-74579290D01*
X76360280Y-74566664D01*
X76369048Y-74554841D01*
X76378934Y-74543934D01*
X76389841Y-74534048D01*
X76401664Y-74525280D01*
X76414290Y-74517712D01*
X76427597Y-74511418D01*
X76441457Y-74506459D01*
X76455736Y-74502882D01*
X76470297Y-74500722D01*
X76485000Y-74500000D01*
X76785000Y-74500000D01*
X76799703Y-74500722D01*
G37*
G36*
X78069703Y-74500722D02*
G01*
X78084264Y-74502882D01*
X78098543Y-74506459D01*
X78112403Y-74511418D01*
X78125710Y-74517712D01*
X78138336Y-74525280D01*
X78150159Y-74534048D01*
X78161066Y-74543934D01*
X78170952Y-74554841D01*
X78179720Y-74566664D01*
X78187288Y-74579290D01*
X78193582Y-74592597D01*
X78198541Y-74606457D01*
X78202118Y-74620736D01*
X78204278Y-74635297D01*
X78205000Y-74650000D01*
X78205000Y-76300000D01*
X78204278Y-76314703D01*
X78202118Y-76329264D01*
X78198541Y-76343543D01*
X78193582Y-76357403D01*
X78187288Y-76370710D01*
X78179720Y-76383336D01*
X78170952Y-76395159D01*
X78161066Y-76406066D01*
X78150159Y-76415952D01*
X78138336Y-76424720D01*
X78125710Y-76432288D01*
X78112403Y-76438582D01*
X78098543Y-76443541D01*
X78084264Y-76447118D01*
X78069703Y-76449278D01*
X78055000Y-76450000D01*
X77755000Y-76450000D01*
X77740297Y-76449278D01*
X77725736Y-76447118D01*
X77711457Y-76443541D01*
X77697597Y-76438582D01*
X77684290Y-76432288D01*
X77671664Y-76424720D01*
X77659841Y-76415952D01*
X77648934Y-76406066D01*
X77639048Y-76395159D01*
X77630280Y-76383336D01*
X77622712Y-76370710D01*
X77616418Y-76357403D01*
X77611459Y-76343543D01*
X77607882Y-76329264D01*
X77605722Y-76314703D01*
X77605000Y-76300000D01*
X77605000Y-74650000D01*
X77605722Y-74635297D01*
X77607882Y-74620736D01*
X77611459Y-74606457D01*
X77616418Y-74592597D01*
X77622712Y-74579290D01*
X77630280Y-74566664D01*
X77639048Y-74554841D01*
X77648934Y-74543934D01*
X77659841Y-74534048D01*
X77671664Y-74525280D01*
X77684290Y-74517712D01*
X77697597Y-74511418D01*
X77711457Y-74506459D01*
X77725736Y-74502882D01*
X77740297Y-74500722D01*
X77755000Y-74500000D01*
X78055000Y-74500000D01*
X78069703Y-74500722D01*
G37*
G36*
X78069703Y-69550722D02*
G01*
X78084264Y-69552882D01*
X78098543Y-69556459D01*
X78112403Y-69561418D01*
X78125710Y-69567712D01*
X78138336Y-69575280D01*
X78150159Y-69584048D01*
X78161066Y-69593934D01*
X78170952Y-69604841D01*
X78179720Y-69616664D01*
X78187288Y-69629290D01*
X78193582Y-69642597D01*
X78198541Y-69656457D01*
X78202118Y-69670736D01*
X78204278Y-69685297D01*
X78205000Y-69700000D01*
X78205000Y-71350000D01*
X78204278Y-71364703D01*
X78202118Y-71379264D01*
X78198541Y-71393543D01*
X78193582Y-71407403D01*
X78187288Y-71420710D01*
X78179720Y-71433336D01*
X78170952Y-71445159D01*
X78161066Y-71456066D01*
X78150159Y-71465952D01*
X78138336Y-71474720D01*
X78125710Y-71482288D01*
X78112403Y-71488582D01*
X78098543Y-71493541D01*
X78084264Y-71497118D01*
X78069703Y-71499278D01*
X78055000Y-71500000D01*
X77755000Y-71500000D01*
X77740297Y-71499278D01*
X77725736Y-71497118D01*
X77711457Y-71493541D01*
X77697597Y-71488582D01*
X77684290Y-71482288D01*
X77671664Y-71474720D01*
X77659841Y-71465952D01*
X77648934Y-71456066D01*
X77639048Y-71445159D01*
X77630280Y-71433336D01*
X77622712Y-71420710D01*
X77616418Y-71407403D01*
X77611459Y-71393543D01*
X77607882Y-71379264D01*
X77605722Y-71364703D01*
X77605000Y-71350000D01*
X77605000Y-69700000D01*
X77605722Y-69685297D01*
X77607882Y-69670736D01*
X77611459Y-69656457D01*
X77616418Y-69642597D01*
X77622712Y-69629290D01*
X77630280Y-69616664D01*
X77639048Y-69604841D01*
X77648934Y-69593934D01*
X77659841Y-69584048D01*
X77671664Y-69575280D01*
X77684290Y-69567712D01*
X77697597Y-69561418D01*
X77711457Y-69556459D01*
X77725736Y-69552882D01*
X77740297Y-69550722D01*
X77755000Y-69550000D01*
X78055000Y-69550000D01*
X78069703Y-69550722D01*
G37*
G36*
X76799703Y-69550722D02*
G01*
X76814264Y-69552882D01*
X76828543Y-69556459D01*
X76842403Y-69561418D01*
X76855710Y-69567712D01*
X76868336Y-69575280D01*
X76880159Y-69584048D01*
X76891066Y-69593934D01*
X76900952Y-69604841D01*
X76909720Y-69616664D01*
X76917288Y-69629290D01*
X76923582Y-69642597D01*
X76928541Y-69656457D01*
X76932118Y-69670736D01*
X76934278Y-69685297D01*
X76935000Y-69700000D01*
X76935000Y-71350000D01*
X76934278Y-71364703D01*
X76932118Y-71379264D01*
X76928541Y-71393543D01*
X76923582Y-71407403D01*
X76917288Y-71420710D01*
X76909720Y-71433336D01*
X76900952Y-71445159D01*
X76891066Y-71456066D01*
X76880159Y-71465952D01*
X76868336Y-71474720D01*
X76855710Y-71482288D01*
X76842403Y-71488582D01*
X76828543Y-71493541D01*
X76814264Y-71497118D01*
X76799703Y-71499278D01*
X76785000Y-71500000D01*
X76485000Y-71500000D01*
X76470297Y-71499278D01*
X76455736Y-71497118D01*
X76441457Y-71493541D01*
X76427597Y-71488582D01*
X76414290Y-71482288D01*
X76401664Y-71474720D01*
X76389841Y-71465952D01*
X76378934Y-71456066D01*
X76369048Y-71445159D01*
X76360280Y-71433336D01*
X76352712Y-71420710D01*
X76346418Y-71407403D01*
X76341459Y-71393543D01*
X76337882Y-71379264D01*
X76335722Y-71364703D01*
X76335000Y-71350000D01*
X76335000Y-69700000D01*
X76335722Y-69685297D01*
X76337882Y-69670736D01*
X76341459Y-69656457D01*
X76346418Y-69642597D01*
X76352712Y-69629290D01*
X76360280Y-69616664D01*
X76369048Y-69604841D01*
X76378934Y-69593934D01*
X76389841Y-69584048D01*
X76401664Y-69575280D01*
X76414290Y-69567712D01*
X76427597Y-69561418D01*
X76441457Y-69556459D01*
X76455736Y-69552882D01*
X76470297Y-69550722D01*
X76485000Y-69550000D01*
X76785000Y-69550000D01*
X76799703Y-69550722D01*
G37*
G36*
X75529703Y-69550722D02*
G01*
X75544264Y-69552882D01*
X75558543Y-69556459D01*
X75572403Y-69561418D01*
X75585710Y-69567712D01*
X75598336Y-69575280D01*
X75610159Y-69584048D01*
X75621066Y-69593934D01*
X75630952Y-69604841D01*
X75639720Y-69616664D01*
X75647288Y-69629290D01*
X75653582Y-69642597D01*
X75658541Y-69656457D01*
X75662118Y-69670736D01*
X75664278Y-69685297D01*
X75665000Y-69700000D01*
X75665000Y-71350000D01*
X75664278Y-71364703D01*
X75662118Y-71379264D01*
X75658541Y-71393543D01*
X75653582Y-71407403D01*
X75647288Y-71420710D01*
X75639720Y-71433336D01*
X75630952Y-71445159D01*
X75621066Y-71456066D01*
X75610159Y-71465952D01*
X75598336Y-71474720D01*
X75585710Y-71482288D01*
X75572403Y-71488582D01*
X75558543Y-71493541D01*
X75544264Y-71497118D01*
X75529703Y-71499278D01*
X75515000Y-71500000D01*
X75215000Y-71500000D01*
X75200297Y-71499278D01*
X75185736Y-71497118D01*
X75171457Y-71493541D01*
X75157597Y-71488582D01*
X75144290Y-71482288D01*
X75131664Y-71474720D01*
X75119841Y-71465952D01*
X75108934Y-71456066D01*
X75099048Y-71445159D01*
X75090280Y-71433336D01*
X75082712Y-71420710D01*
X75076418Y-71407403D01*
X75071459Y-71393543D01*
X75067882Y-71379264D01*
X75065722Y-71364703D01*
X75065000Y-71350000D01*
X75065000Y-69700000D01*
X75065722Y-69685297D01*
X75067882Y-69670736D01*
X75071459Y-69656457D01*
X75076418Y-69642597D01*
X75082712Y-69629290D01*
X75090280Y-69616664D01*
X75099048Y-69604841D01*
X75108934Y-69593934D01*
X75119841Y-69584048D01*
X75131664Y-69575280D01*
X75144290Y-69567712D01*
X75157597Y-69561418D01*
X75171457Y-69556459D01*
X75185736Y-69552882D01*
X75200297Y-69550722D01*
X75215000Y-69550000D01*
X75515000Y-69550000D01*
X75529703Y-69550722D01*
G37*
G36*
X74259703Y-69550722D02*
G01*
X74274264Y-69552882D01*
X74288543Y-69556459D01*
X74302403Y-69561418D01*
X74315710Y-69567712D01*
X74328336Y-69575280D01*
X74340159Y-69584048D01*
X74351066Y-69593934D01*
X74360952Y-69604841D01*
X74369720Y-69616664D01*
X74377288Y-69629290D01*
X74383582Y-69642597D01*
X74388541Y-69656457D01*
X74392118Y-69670736D01*
X74394278Y-69685297D01*
X74395000Y-69700000D01*
X74395000Y-71350000D01*
X74394278Y-71364703D01*
X74392118Y-71379264D01*
X74388541Y-71393543D01*
X74383582Y-71407403D01*
X74377288Y-71420710D01*
X74369720Y-71433336D01*
X74360952Y-71445159D01*
X74351066Y-71456066D01*
X74340159Y-71465952D01*
X74328336Y-71474720D01*
X74315710Y-71482288D01*
X74302403Y-71488582D01*
X74288543Y-71493541D01*
X74274264Y-71497118D01*
X74259703Y-71499278D01*
X74245000Y-71500000D01*
X73945000Y-71500000D01*
X73930297Y-71499278D01*
X73915736Y-71497118D01*
X73901457Y-71493541D01*
X73887597Y-71488582D01*
X73874290Y-71482288D01*
X73861664Y-71474720D01*
X73849841Y-71465952D01*
X73838934Y-71456066D01*
X73829048Y-71445159D01*
X73820280Y-71433336D01*
X73812712Y-71420710D01*
X73806418Y-71407403D01*
X73801459Y-71393543D01*
X73797882Y-71379264D01*
X73795722Y-71364703D01*
X73795000Y-71350000D01*
X73795000Y-69700000D01*
X73795722Y-69685297D01*
X73797882Y-69670736D01*
X73801459Y-69656457D01*
X73806418Y-69642597D01*
X73812712Y-69629290D01*
X73820280Y-69616664D01*
X73829048Y-69604841D01*
X73838934Y-69593934D01*
X73849841Y-69584048D01*
X73861664Y-69575280D01*
X73874290Y-69567712D01*
X73887597Y-69561418D01*
X73901457Y-69556459D01*
X73915736Y-69552882D01*
X73930297Y-69550722D01*
X73945000Y-69550000D01*
X74245000Y-69550000D01*
X74259703Y-69550722D01*
G37*
D22*
X89100000Y-80900000D03*
X94100000Y-80900000D03*
M02*
