G04 #@! TF.GenerationSoftware,KiCad,Pcbnew,5.1.5+dfsg1-2build2*
G04 #@! TF.CreationDate,2020-11-30T17:19:29+01:00*
G04 #@! TF.ProjectId,180V power supply,31383056-2070-46f7-9765-722073757070,rev?*
G04 #@! TF.SameCoordinates,Original*
G04 #@! TF.FileFunction,Copper,L1,Top*
G04 #@! TF.FilePolarity,Positive*
%FSLAX46Y46*%
G04 Gerber Fmt 4.6, Leading zero omitted, Abs format (unit mm)*
G04 Created by KiCad (PCBNEW 5.1.5+dfsg1-2build2) date 2020-11-30 17:19:29*
%MOMM*%
%LPD*%
G04 APERTURE LIST*
%ADD10C,0.300000*%
%ADD11O,1.700000X1.700000*%
%ADD12R,1.700000X1.700000*%
%ADD13C,2.400000*%
%ADD14C,1.600000*%
%ADD15C,0.150000*%
%ADD16R,1.300000X1.700000*%
%ADD17R,2.200000X2.200000*%
%ADD18O,2.200000X2.200000*%
%ADD19C,1.500000*%
%ADD20R,2.000000X1.905000*%
%ADD21O,2.000000X1.905000*%
%ADD22C,2.600000*%
%ADD23C,0.800000*%
%ADD24C,0.254000*%
G04 APERTURE END LIST*
D10*
X65964285Y-75678571D02*
X65964285Y-74178571D01*
X66678571Y-75678571D02*
X66678571Y-74178571D01*
X67535714Y-75678571D01*
X67535714Y-74178571D01*
X105857142Y-76578571D02*
X105000000Y-76578571D01*
X105428571Y-76578571D02*
X105428571Y-75078571D01*
X105285714Y-75292857D01*
X105142857Y-75435714D01*
X105000000Y-75507142D01*
X106714285Y-75721428D02*
X106571428Y-75650000D01*
X106500000Y-75578571D01*
X106428571Y-75435714D01*
X106428571Y-75364285D01*
X106500000Y-75221428D01*
X106571428Y-75150000D01*
X106714285Y-75078571D01*
X107000000Y-75078571D01*
X107142857Y-75150000D01*
X107214285Y-75221428D01*
X107285714Y-75364285D01*
X107285714Y-75435714D01*
X107214285Y-75578571D01*
X107142857Y-75650000D01*
X107000000Y-75721428D01*
X106714285Y-75721428D01*
X106571428Y-75792857D01*
X106500000Y-75864285D01*
X106428571Y-76007142D01*
X106428571Y-76292857D01*
X106500000Y-76435714D01*
X106571428Y-76507142D01*
X106714285Y-76578571D01*
X107000000Y-76578571D01*
X107142857Y-76507142D01*
X107214285Y-76435714D01*
X107285714Y-76292857D01*
X107285714Y-76007142D01*
X107214285Y-75864285D01*
X107142857Y-75792857D01*
X107000000Y-75721428D01*
X108214285Y-75078571D02*
X108357142Y-75078571D01*
X108500000Y-75150000D01*
X108571428Y-75221428D01*
X108642857Y-75364285D01*
X108714285Y-75650000D01*
X108714285Y-76007142D01*
X108642857Y-76292857D01*
X108571428Y-76435714D01*
X108500000Y-76507142D01*
X108357142Y-76578571D01*
X108214285Y-76578571D01*
X108071428Y-76507142D01*
X108000000Y-76435714D01*
X107928571Y-76292857D01*
X107857142Y-76007142D01*
X107857142Y-75650000D01*
X107928571Y-75364285D01*
X108000000Y-75221428D01*
X108071428Y-75150000D01*
X108214285Y-75078571D01*
X109142857Y-75078571D02*
X109642857Y-76578571D01*
X110142857Y-75078571D01*
D11*
X109500000Y-72040000D03*
D12*
X109500000Y-69500000D03*
X65532000Y-72000000D03*
D11*
X65532000Y-69460000D03*
D13*
X101250000Y-59944000D03*
X73750000Y-59944000D03*
D14*
X69900000Y-69500000D03*
X69900000Y-67000000D03*
G04 #@! TA.AperFunction,SMDPad,CuDef*
D15*
G36*
X81330142Y-64301174D02*
G01*
X81353803Y-64304684D01*
X81377007Y-64310496D01*
X81399529Y-64318554D01*
X81421153Y-64328782D01*
X81441670Y-64341079D01*
X81460883Y-64355329D01*
X81478607Y-64371393D01*
X81494671Y-64389117D01*
X81508921Y-64408330D01*
X81521218Y-64428847D01*
X81531446Y-64450471D01*
X81539504Y-64472993D01*
X81545316Y-64496197D01*
X81548826Y-64519858D01*
X81550000Y-64543750D01*
X81550000Y-65456250D01*
X81548826Y-65480142D01*
X81545316Y-65503803D01*
X81539504Y-65527007D01*
X81531446Y-65549529D01*
X81521218Y-65571153D01*
X81508921Y-65591670D01*
X81494671Y-65610883D01*
X81478607Y-65628607D01*
X81460883Y-65644671D01*
X81441670Y-65658921D01*
X81421153Y-65671218D01*
X81399529Y-65681446D01*
X81377007Y-65689504D01*
X81353803Y-65695316D01*
X81330142Y-65698826D01*
X81306250Y-65700000D01*
X80818750Y-65700000D01*
X80794858Y-65698826D01*
X80771197Y-65695316D01*
X80747993Y-65689504D01*
X80725471Y-65681446D01*
X80703847Y-65671218D01*
X80683330Y-65658921D01*
X80664117Y-65644671D01*
X80646393Y-65628607D01*
X80630329Y-65610883D01*
X80616079Y-65591670D01*
X80603782Y-65571153D01*
X80593554Y-65549529D01*
X80585496Y-65527007D01*
X80579684Y-65503803D01*
X80576174Y-65480142D01*
X80575000Y-65456250D01*
X80575000Y-64543750D01*
X80576174Y-64519858D01*
X80579684Y-64496197D01*
X80585496Y-64472993D01*
X80593554Y-64450471D01*
X80603782Y-64428847D01*
X80616079Y-64408330D01*
X80630329Y-64389117D01*
X80646393Y-64371393D01*
X80664117Y-64355329D01*
X80683330Y-64341079D01*
X80703847Y-64328782D01*
X80725471Y-64318554D01*
X80747993Y-64310496D01*
X80771197Y-64304684D01*
X80794858Y-64301174D01*
X80818750Y-64300000D01*
X81306250Y-64300000D01*
X81330142Y-64301174D01*
G37*
G04 #@! TD.AperFunction*
G04 #@! TA.AperFunction,SMDPad,CuDef*
G36*
X83205142Y-64301174D02*
G01*
X83228803Y-64304684D01*
X83252007Y-64310496D01*
X83274529Y-64318554D01*
X83296153Y-64328782D01*
X83316670Y-64341079D01*
X83335883Y-64355329D01*
X83353607Y-64371393D01*
X83369671Y-64389117D01*
X83383921Y-64408330D01*
X83396218Y-64428847D01*
X83406446Y-64450471D01*
X83414504Y-64472993D01*
X83420316Y-64496197D01*
X83423826Y-64519858D01*
X83425000Y-64543750D01*
X83425000Y-65456250D01*
X83423826Y-65480142D01*
X83420316Y-65503803D01*
X83414504Y-65527007D01*
X83406446Y-65549529D01*
X83396218Y-65571153D01*
X83383921Y-65591670D01*
X83369671Y-65610883D01*
X83353607Y-65628607D01*
X83335883Y-65644671D01*
X83316670Y-65658921D01*
X83296153Y-65671218D01*
X83274529Y-65681446D01*
X83252007Y-65689504D01*
X83228803Y-65695316D01*
X83205142Y-65698826D01*
X83181250Y-65700000D01*
X82693750Y-65700000D01*
X82669858Y-65698826D01*
X82646197Y-65695316D01*
X82622993Y-65689504D01*
X82600471Y-65681446D01*
X82578847Y-65671218D01*
X82558330Y-65658921D01*
X82539117Y-65644671D01*
X82521393Y-65628607D01*
X82505329Y-65610883D01*
X82491079Y-65591670D01*
X82478782Y-65571153D01*
X82468554Y-65549529D01*
X82460496Y-65527007D01*
X82454684Y-65503803D01*
X82451174Y-65480142D01*
X82450000Y-65456250D01*
X82450000Y-64543750D01*
X82451174Y-64519858D01*
X82454684Y-64496197D01*
X82460496Y-64472993D01*
X82468554Y-64450471D01*
X82478782Y-64428847D01*
X82491079Y-64408330D01*
X82505329Y-64389117D01*
X82521393Y-64371393D01*
X82539117Y-64355329D01*
X82558330Y-64341079D01*
X82578847Y-64328782D01*
X82600471Y-64318554D01*
X82622993Y-64310496D01*
X82646197Y-64304684D01*
X82669858Y-64301174D01*
X82693750Y-64300000D01*
X83181250Y-64300000D01*
X83205142Y-64301174D01*
G37*
G04 #@! TD.AperFunction*
G04 #@! TA.AperFunction,SMDPad,CuDef*
G36*
X77330142Y-77301174D02*
G01*
X77353803Y-77304684D01*
X77377007Y-77310496D01*
X77399529Y-77318554D01*
X77421153Y-77328782D01*
X77441670Y-77341079D01*
X77460883Y-77355329D01*
X77478607Y-77371393D01*
X77494671Y-77389117D01*
X77508921Y-77408330D01*
X77521218Y-77428847D01*
X77531446Y-77450471D01*
X77539504Y-77472993D01*
X77545316Y-77496197D01*
X77548826Y-77519858D01*
X77550000Y-77543750D01*
X77550000Y-78456250D01*
X77548826Y-78480142D01*
X77545316Y-78503803D01*
X77539504Y-78527007D01*
X77531446Y-78549529D01*
X77521218Y-78571153D01*
X77508921Y-78591670D01*
X77494671Y-78610883D01*
X77478607Y-78628607D01*
X77460883Y-78644671D01*
X77441670Y-78658921D01*
X77421153Y-78671218D01*
X77399529Y-78681446D01*
X77377007Y-78689504D01*
X77353803Y-78695316D01*
X77330142Y-78698826D01*
X77306250Y-78700000D01*
X76818750Y-78700000D01*
X76794858Y-78698826D01*
X76771197Y-78695316D01*
X76747993Y-78689504D01*
X76725471Y-78681446D01*
X76703847Y-78671218D01*
X76683330Y-78658921D01*
X76664117Y-78644671D01*
X76646393Y-78628607D01*
X76630329Y-78610883D01*
X76616079Y-78591670D01*
X76603782Y-78571153D01*
X76593554Y-78549529D01*
X76585496Y-78527007D01*
X76579684Y-78503803D01*
X76576174Y-78480142D01*
X76575000Y-78456250D01*
X76575000Y-77543750D01*
X76576174Y-77519858D01*
X76579684Y-77496197D01*
X76585496Y-77472993D01*
X76593554Y-77450471D01*
X76603782Y-77428847D01*
X76616079Y-77408330D01*
X76630329Y-77389117D01*
X76646393Y-77371393D01*
X76664117Y-77355329D01*
X76683330Y-77341079D01*
X76703847Y-77328782D01*
X76725471Y-77318554D01*
X76747993Y-77310496D01*
X76771197Y-77304684D01*
X76794858Y-77301174D01*
X76818750Y-77300000D01*
X77306250Y-77300000D01*
X77330142Y-77301174D01*
G37*
G04 #@! TD.AperFunction*
G04 #@! TA.AperFunction,SMDPad,CuDef*
G36*
X79205142Y-77301174D02*
G01*
X79228803Y-77304684D01*
X79252007Y-77310496D01*
X79274529Y-77318554D01*
X79296153Y-77328782D01*
X79316670Y-77341079D01*
X79335883Y-77355329D01*
X79353607Y-77371393D01*
X79369671Y-77389117D01*
X79383921Y-77408330D01*
X79396218Y-77428847D01*
X79406446Y-77450471D01*
X79414504Y-77472993D01*
X79420316Y-77496197D01*
X79423826Y-77519858D01*
X79425000Y-77543750D01*
X79425000Y-78456250D01*
X79423826Y-78480142D01*
X79420316Y-78503803D01*
X79414504Y-78527007D01*
X79406446Y-78549529D01*
X79396218Y-78571153D01*
X79383921Y-78591670D01*
X79369671Y-78610883D01*
X79353607Y-78628607D01*
X79335883Y-78644671D01*
X79316670Y-78658921D01*
X79296153Y-78671218D01*
X79274529Y-78681446D01*
X79252007Y-78689504D01*
X79228803Y-78695316D01*
X79205142Y-78698826D01*
X79181250Y-78700000D01*
X78693750Y-78700000D01*
X78669858Y-78698826D01*
X78646197Y-78695316D01*
X78622993Y-78689504D01*
X78600471Y-78681446D01*
X78578847Y-78671218D01*
X78558330Y-78658921D01*
X78539117Y-78644671D01*
X78521393Y-78628607D01*
X78505329Y-78610883D01*
X78491079Y-78591670D01*
X78478782Y-78571153D01*
X78468554Y-78549529D01*
X78460496Y-78527007D01*
X78454684Y-78503803D01*
X78451174Y-78480142D01*
X78450000Y-78456250D01*
X78450000Y-77543750D01*
X78451174Y-77519858D01*
X78454684Y-77496197D01*
X78460496Y-77472993D01*
X78468554Y-77450471D01*
X78478782Y-77428847D01*
X78491079Y-77408330D01*
X78505329Y-77389117D01*
X78521393Y-77371393D01*
X78539117Y-77355329D01*
X78558330Y-77341079D01*
X78578847Y-77328782D01*
X78600471Y-77318554D01*
X78622993Y-77310496D01*
X78646197Y-77304684D01*
X78669858Y-77301174D01*
X78693750Y-77300000D01*
X79181250Y-77300000D01*
X79205142Y-77301174D01*
G37*
G04 #@! TD.AperFunction*
D16*
X85250000Y-81000000D03*
X81750000Y-81000000D03*
D17*
X104600000Y-62200000D03*
D18*
X104600000Y-72360000D03*
D19*
X82600000Y-75300000D03*
X84396051Y-77096051D03*
G04 #@! TA.AperFunction,ComponentPad*
D15*
G36*
X80803949Y-74564609D02*
G01*
X79743289Y-73503949D01*
X80803949Y-72443289D01*
X81864609Y-73503949D01*
X80803949Y-74564609D01*
G37*
G04 #@! TD.AperFunction*
D20*
X100000000Y-80000000D03*
D21*
X100000000Y-77460000D03*
X100000000Y-74920000D03*
G04 #@! TA.AperFunction,SMDPad,CuDef*
D15*
G36*
X83799504Y-66626204D02*
G01*
X83823773Y-66629804D01*
X83847571Y-66635765D01*
X83870671Y-66644030D01*
X83892849Y-66654520D01*
X83913893Y-66667133D01*
X83933598Y-66681747D01*
X83951777Y-66698223D01*
X83968253Y-66716402D01*
X83982867Y-66736107D01*
X83995480Y-66757151D01*
X84005970Y-66779329D01*
X84014235Y-66802429D01*
X84020196Y-66826227D01*
X84023796Y-66850496D01*
X84025000Y-66875000D01*
X84025000Y-68125000D01*
X84023796Y-68149504D01*
X84020196Y-68173773D01*
X84014235Y-68197571D01*
X84005970Y-68220671D01*
X83995480Y-68242849D01*
X83982867Y-68263893D01*
X83968253Y-68283598D01*
X83951777Y-68301777D01*
X83933598Y-68318253D01*
X83913893Y-68332867D01*
X83892849Y-68345480D01*
X83870671Y-68355970D01*
X83847571Y-68364235D01*
X83823773Y-68370196D01*
X83799504Y-68373796D01*
X83775000Y-68375000D01*
X83025000Y-68375000D01*
X83000496Y-68373796D01*
X82976227Y-68370196D01*
X82952429Y-68364235D01*
X82929329Y-68355970D01*
X82907151Y-68345480D01*
X82886107Y-68332867D01*
X82866402Y-68318253D01*
X82848223Y-68301777D01*
X82831747Y-68283598D01*
X82817133Y-68263893D01*
X82804520Y-68242849D01*
X82794030Y-68220671D01*
X82785765Y-68197571D01*
X82779804Y-68173773D01*
X82776204Y-68149504D01*
X82775000Y-68125000D01*
X82775000Y-66875000D01*
X82776204Y-66850496D01*
X82779804Y-66826227D01*
X82785765Y-66802429D01*
X82794030Y-66779329D01*
X82804520Y-66757151D01*
X82817133Y-66736107D01*
X82831747Y-66716402D01*
X82848223Y-66698223D01*
X82866402Y-66681747D01*
X82886107Y-66667133D01*
X82907151Y-66654520D01*
X82929329Y-66644030D01*
X82952429Y-66635765D01*
X82976227Y-66629804D01*
X83000496Y-66626204D01*
X83025000Y-66625000D01*
X83775000Y-66625000D01*
X83799504Y-66626204D01*
G37*
G04 #@! TD.AperFunction*
G04 #@! TA.AperFunction,SMDPad,CuDef*
G36*
X80999504Y-66626204D02*
G01*
X81023773Y-66629804D01*
X81047571Y-66635765D01*
X81070671Y-66644030D01*
X81092849Y-66654520D01*
X81113893Y-66667133D01*
X81133598Y-66681747D01*
X81151777Y-66698223D01*
X81168253Y-66716402D01*
X81182867Y-66736107D01*
X81195480Y-66757151D01*
X81205970Y-66779329D01*
X81214235Y-66802429D01*
X81220196Y-66826227D01*
X81223796Y-66850496D01*
X81225000Y-66875000D01*
X81225000Y-68125000D01*
X81223796Y-68149504D01*
X81220196Y-68173773D01*
X81214235Y-68197571D01*
X81205970Y-68220671D01*
X81195480Y-68242849D01*
X81182867Y-68263893D01*
X81168253Y-68283598D01*
X81151777Y-68301777D01*
X81133598Y-68318253D01*
X81113893Y-68332867D01*
X81092849Y-68345480D01*
X81070671Y-68355970D01*
X81047571Y-68364235D01*
X81023773Y-68370196D01*
X80999504Y-68373796D01*
X80975000Y-68375000D01*
X80225000Y-68375000D01*
X80200496Y-68373796D01*
X80176227Y-68370196D01*
X80152429Y-68364235D01*
X80129329Y-68355970D01*
X80107151Y-68345480D01*
X80086107Y-68332867D01*
X80066402Y-68318253D01*
X80048223Y-68301777D01*
X80031747Y-68283598D01*
X80017133Y-68263893D01*
X80004520Y-68242849D01*
X79994030Y-68220671D01*
X79985765Y-68197571D01*
X79979804Y-68173773D01*
X79976204Y-68149504D01*
X79975000Y-68125000D01*
X79975000Y-66875000D01*
X79976204Y-66850496D01*
X79979804Y-66826227D01*
X79985765Y-66802429D01*
X79994030Y-66779329D01*
X80004520Y-66757151D01*
X80017133Y-66736107D01*
X80031747Y-66716402D01*
X80048223Y-66698223D01*
X80066402Y-66681747D01*
X80086107Y-66667133D01*
X80107151Y-66654520D01*
X80129329Y-66644030D01*
X80152429Y-66635765D01*
X80176227Y-66629804D01*
X80200496Y-66626204D01*
X80225000Y-66625000D01*
X80975000Y-66625000D01*
X80999504Y-66626204D01*
G37*
G04 #@! TD.AperFunction*
G04 #@! TA.AperFunction,SMDPad,CuDef*
G36*
X77299504Y-66626204D02*
G01*
X77323773Y-66629804D01*
X77347571Y-66635765D01*
X77370671Y-66644030D01*
X77392849Y-66654520D01*
X77413893Y-66667133D01*
X77433598Y-66681747D01*
X77451777Y-66698223D01*
X77468253Y-66716402D01*
X77482867Y-66736107D01*
X77495480Y-66757151D01*
X77505970Y-66779329D01*
X77514235Y-66802429D01*
X77520196Y-66826227D01*
X77523796Y-66850496D01*
X77525000Y-66875000D01*
X77525000Y-68125000D01*
X77523796Y-68149504D01*
X77520196Y-68173773D01*
X77514235Y-68197571D01*
X77505970Y-68220671D01*
X77495480Y-68242849D01*
X77482867Y-68263893D01*
X77468253Y-68283598D01*
X77451777Y-68301777D01*
X77433598Y-68318253D01*
X77413893Y-68332867D01*
X77392849Y-68345480D01*
X77370671Y-68355970D01*
X77347571Y-68364235D01*
X77323773Y-68370196D01*
X77299504Y-68373796D01*
X77275000Y-68375000D01*
X76525000Y-68375000D01*
X76500496Y-68373796D01*
X76476227Y-68370196D01*
X76452429Y-68364235D01*
X76429329Y-68355970D01*
X76407151Y-68345480D01*
X76386107Y-68332867D01*
X76366402Y-68318253D01*
X76348223Y-68301777D01*
X76331747Y-68283598D01*
X76317133Y-68263893D01*
X76304520Y-68242849D01*
X76294030Y-68220671D01*
X76285765Y-68197571D01*
X76279804Y-68173773D01*
X76276204Y-68149504D01*
X76275000Y-68125000D01*
X76275000Y-66875000D01*
X76276204Y-66850496D01*
X76279804Y-66826227D01*
X76285765Y-66802429D01*
X76294030Y-66779329D01*
X76304520Y-66757151D01*
X76317133Y-66736107D01*
X76331747Y-66716402D01*
X76348223Y-66698223D01*
X76366402Y-66681747D01*
X76386107Y-66667133D01*
X76407151Y-66654520D01*
X76429329Y-66644030D01*
X76452429Y-66635765D01*
X76476227Y-66629804D01*
X76500496Y-66626204D01*
X76525000Y-66625000D01*
X77275000Y-66625000D01*
X77299504Y-66626204D01*
G37*
G04 #@! TD.AperFunction*
G04 #@! TA.AperFunction,SMDPad,CuDef*
G36*
X74499504Y-66626204D02*
G01*
X74523773Y-66629804D01*
X74547571Y-66635765D01*
X74570671Y-66644030D01*
X74592849Y-66654520D01*
X74613893Y-66667133D01*
X74633598Y-66681747D01*
X74651777Y-66698223D01*
X74668253Y-66716402D01*
X74682867Y-66736107D01*
X74695480Y-66757151D01*
X74705970Y-66779329D01*
X74714235Y-66802429D01*
X74720196Y-66826227D01*
X74723796Y-66850496D01*
X74725000Y-66875000D01*
X74725000Y-68125000D01*
X74723796Y-68149504D01*
X74720196Y-68173773D01*
X74714235Y-68197571D01*
X74705970Y-68220671D01*
X74695480Y-68242849D01*
X74682867Y-68263893D01*
X74668253Y-68283598D01*
X74651777Y-68301777D01*
X74633598Y-68318253D01*
X74613893Y-68332867D01*
X74592849Y-68345480D01*
X74570671Y-68355970D01*
X74547571Y-68364235D01*
X74523773Y-68370196D01*
X74499504Y-68373796D01*
X74475000Y-68375000D01*
X73725000Y-68375000D01*
X73700496Y-68373796D01*
X73676227Y-68370196D01*
X73652429Y-68364235D01*
X73629329Y-68355970D01*
X73607151Y-68345480D01*
X73586107Y-68332867D01*
X73566402Y-68318253D01*
X73548223Y-68301777D01*
X73531747Y-68283598D01*
X73517133Y-68263893D01*
X73504520Y-68242849D01*
X73494030Y-68220671D01*
X73485765Y-68197571D01*
X73479804Y-68173773D01*
X73476204Y-68149504D01*
X73475000Y-68125000D01*
X73475000Y-66875000D01*
X73476204Y-66850496D01*
X73479804Y-66826227D01*
X73485765Y-66802429D01*
X73494030Y-66779329D01*
X73504520Y-66757151D01*
X73517133Y-66736107D01*
X73531747Y-66716402D01*
X73548223Y-66698223D01*
X73566402Y-66681747D01*
X73586107Y-66667133D01*
X73607151Y-66654520D01*
X73629329Y-66644030D01*
X73652429Y-66635765D01*
X73676227Y-66629804D01*
X73700496Y-66626204D01*
X73725000Y-66625000D01*
X74475000Y-66625000D01*
X74499504Y-66626204D01*
G37*
G04 #@! TD.AperFunction*
G04 #@! TA.AperFunction,SMDPad,CuDef*
G36*
X86499504Y-66626204D02*
G01*
X86523773Y-66629804D01*
X86547571Y-66635765D01*
X86570671Y-66644030D01*
X86592849Y-66654520D01*
X86613893Y-66667133D01*
X86633598Y-66681747D01*
X86651777Y-66698223D01*
X86668253Y-66716402D01*
X86682867Y-66736107D01*
X86695480Y-66757151D01*
X86705970Y-66779329D01*
X86714235Y-66802429D01*
X86720196Y-66826227D01*
X86723796Y-66850496D01*
X86725000Y-66875000D01*
X86725000Y-68125000D01*
X86723796Y-68149504D01*
X86720196Y-68173773D01*
X86714235Y-68197571D01*
X86705970Y-68220671D01*
X86695480Y-68242849D01*
X86682867Y-68263893D01*
X86668253Y-68283598D01*
X86651777Y-68301777D01*
X86633598Y-68318253D01*
X86613893Y-68332867D01*
X86592849Y-68345480D01*
X86570671Y-68355970D01*
X86547571Y-68364235D01*
X86523773Y-68370196D01*
X86499504Y-68373796D01*
X86475000Y-68375000D01*
X85725000Y-68375000D01*
X85700496Y-68373796D01*
X85676227Y-68370196D01*
X85652429Y-68364235D01*
X85629329Y-68355970D01*
X85607151Y-68345480D01*
X85586107Y-68332867D01*
X85566402Y-68318253D01*
X85548223Y-68301777D01*
X85531747Y-68283598D01*
X85517133Y-68263893D01*
X85504520Y-68242849D01*
X85494030Y-68220671D01*
X85485765Y-68197571D01*
X85479804Y-68173773D01*
X85476204Y-68149504D01*
X85475000Y-68125000D01*
X85475000Y-66875000D01*
X85476204Y-66850496D01*
X85479804Y-66826227D01*
X85485765Y-66802429D01*
X85494030Y-66779329D01*
X85504520Y-66757151D01*
X85517133Y-66736107D01*
X85531747Y-66716402D01*
X85548223Y-66698223D01*
X85566402Y-66681747D01*
X85586107Y-66667133D01*
X85607151Y-66654520D01*
X85629329Y-66644030D01*
X85652429Y-66635765D01*
X85676227Y-66629804D01*
X85700496Y-66626204D01*
X85725000Y-66625000D01*
X86475000Y-66625000D01*
X86499504Y-66626204D01*
G37*
G04 #@! TD.AperFunction*
G04 #@! TA.AperFunction,SMDPad,CuDef*
G36*
X89299504Y-66626204D02*
G01*
X89323773Y-66629804D01*
X89347571Y-66635765D01*
X89370671Y-66644030D01*
X89392849Y-66654520D01*
X89413893Y-66667133D01*
X89433598Y-66681747D01*
X89451777Y-66698223D01*
X89468253Y-66716402D01*
X89482867Y-66736107D01*
X89495480Y-66757151D01*
X89505970Y-66779329D01*
X89514235Y-66802429D01*
X89520196Y-66826227D01*
X89523796Y-66850496D01*
X89525000Y-66875000D01*
X89525000Y-68125000D01*
X89523796Y-68149504D01*
X89520196Y-68173773D01*
X89514235Y-68197571D01*
X89505970Y-68220671D01*
X89495480Y-68242849D01*
X89482867Y-68263893D01*
X89468253Y-68283598D01*
X89451777Y-68301777D01*
X89433598Y-68318253D01*
X89413893Y-68332867D01*
X89392849Y-68345480D01*
X89370671Y-68355970D01*
X89347571Y-68364235D01*
X89323773Y-68370196D01*
X89299504Y-68373796D01*
X89275000Y-68375000D01*
X88525000Y-68375000D01*
X88500496Y-68373796D01*
X88476227Y-68370196D01*
X88452429Y-68364235D01*
X88429329Y-68355970D01*
X88407151Y-68345480D01*
X88386107Y-68332867D01*
X88366402Y-68318253D01*
X88348223Y-68301777D01*
X88331747Y-68283598D01*
X88317133Y-68263893D01*
X88304520Y-68242849D01*
X88294030Y-68220671D01*
X88285765Y-68197571D01*
X88279804Y-68173773D01*
X88276204Y-68149504D01*
X88275000Y-68125000D01*
X88275000Y-66875000D01*
X88276204Y-66850496D01*
X88279804Y-66826227D01*
X88285765Y-66802429D01*
X88294030Y-66779329D01*
X88304520Y-66757151D01*
X88317133Y-66736107D01*
X88331747Y-66716402D01*
X88348223Y-66698223D01*
X88366402Y-66681747D01*
X88386107Y-66667133D01*
X88407151Y-66654520D01*
X88429329Y-66644030D01*
X88452429Y-66635765D01*
X88476227Y-66629804D01*
X88500496Y-66626204D01*
X88525000Y-66625000D01*
X89275000Y-66625000D01*
X89299504Y-66626204D01*
G37*
G04 #@! TD.AperFunction*
G04 #@! TA.AperFunction,SMDPad,CuDef*
G36*
X94799504Y-66626204D02*
G01*
X94823773Y-66629804D01*
X94847571Y-66635765D01*
X94870671Y-66644030D01*
X94892849Y-66654520D01*
X94913893Y-66667133D01*
X94933598Y-66681747D01*
X94951777Y-66698223D01*
X94968253Y-66716402D01*
X94982867Y-66736107D01*
X94995480Y-66757151D01*
X95005970Y-66779329D01*
X95014235Y-66802429D01*
X95020196Y-66826227D01*
X95023796Y-66850496D01*
X95025000Y-66875000D01*
X95025000Y-68125000D01*
X95023796Y-68149504D01*
X95020196Y-68173773D01*
X95014235Y-68197571D01*
X95005970Y-68220671D01*
X94995480Y-68242849D01*
X94982867Y-68263893D01*
X94968253Y-68283598D01*
X94951777Y-68301777D01*
X94933598Y-68318253D01*
X94913893Y-68332867D01*
X94892849Y-68345480D01*
X94870671Y-68355970D01*
X94847571Y-68364235D01*
X94823773Y-68370196D01*
X94799504Y-68373796D01*
X94775000Y-68375000D01*
X94025000Y-68375000D01*
X94000496Y-68373796D01*
X93976227Y-68370196D01*
X93952429Y-68364235D01*
X93929329Y-68355970D01*
X93907151Y-68345480D01*
X93886107Y-68332867D01*
X93866402Y-68318253D01*
X93848223Y-68301777D01*
X93831747Y-68283598D01*
X93817133Y-68263893D01*
X93804520Y-68242849D01*
X93794030Y-68220671D01*
X93785765Y-68197571D01*
X93779804Y-68173773D01*
X93776204Y-68149504D01*
X93775000Y-68125000D01*
X93775000Y-66875000D01*
X93776204Y-66850496D01*
X93779804Y-66826227D01*
X93785765Y-66802429D01*
X93794030Y-66779329D01*
X93804520Y-66757151D01*
X93817133Y-66736107D01*
X93831747Y-66716402D01*
X93848223Y-66698223D01*
X93866402Y-66681747D01*
X93886107Y-66667133D01*
X93907151Y-66654520D01*
X93929329Y-66644030D01*
X93952429Y-66635765D01*
X93976227Y-66629804D01*
X94000496Y-66626204D01*
X94025000Y-66625000D01*
X94775000Y-66625000D01*
X94799504Y-66626204D01*
G37*
G04 #@! TD.AperFunction*
G04 #@! TA.AperFunction,SMDPad,CuDef*
G36*
X91999504Y-66626204D02*
G01*
X92023773Y-66629804D01*
X92047571Y-66635765D01*
X92070671Y-66644030D01*
X92092849Y-66654520D01*
X92113893Y-66667133D01*
X92133598Y-66681747D01*
X92151777Y-66698223D01*
X92168253Y-66716402D01*
X92182867Y-66736107D01*
X92195480Y-66757151D01*
X92205970Y-66779329D01*
X92214235Y-66802429D01*
X92220196Y-66826227D01*
X92223796Y-66850496D01*
X92225000Y-66875000D01*
X92225000Y-68125000D01*
X92223796Y-68149504D01*
X92220196Y-68173773D01*
X92214235Y-68197571D01*
X92205970Y-68220671D01*
X92195480Y-68242849D01*
X92182867Y-68263893D01*
X92168253Y-68283598D01*
X92151777Y-68301777D01*
X92133598Y-68318253D01*
X92113893Y-68332867D01*
X92092849Y-68345480D01*
X92070671Y-68355970D01*
X92047571Y-68364235D01*
X92023773Y-68370196D01*
X91999504Y-68373796D01*
X91975000Y-68375000D01*
X91225000Y-68375000D01*
X91200496Y-68373796D01*
X91176227Y-68370196D01*
X91152429Y-68364235D01*
X91129329Y-68355970D01*
X91107151Y-68345480D01*
X91086107Y-68332867D01*
X91066402Y-68318253D01*
X91048223Y-68301777D01*
X91031747Y-68283598D01*
X91017133Y-68263893D01*
X91004520Y-68242849D01*
X90994030Y-68220671D01*
X90985765Y-68197571D01*
X90979804Y-68173773D01*
X90976204Y-68149504D01*
X90975000Y-68125000D01*
X90975000Y-66875000D01*
X90976204Y-66850496D01*
X90979804Y-66826227D01*
X90985765Y-66802429D01*
X90994030Y-66779329D01*
X91004520Y-66757151D01*
X91017133Y-66736107D01*
X91031747Y-66716402D01*
X91048223Y-66698223D01*
X91066402Y-66681747D01*
X91086107Y-66667133D01*
X91107151Y-66654520D01*
X91129329Y-66644030D01*
X91152429Y-66635765D01*
X91176227Y-66629804D01*
X91200496Y-66626204D01*
X91225000Y-66625000D01*
X91975000Y-66625000D01*
X91999504Y-66626204D01*
G37*
G04 #@! TD.AperFunction*
G04 #@! TA.AperFunction,SMDPad,CuDef*
G36*
X97499504Y-66626204D02*
G01*
X97523773Y-66629804D01*
X97547571Y-66635765D01*
X97570671Y-66644030D01*
X97592849Y-66654520D01*
X97613893Y-66667133D01*
X97633598Y-66681747D01*
X97651777Y-66698223D01*
X97668253Y-66716402D01*
X97682867Y-66736107D01*
X97695480Y-66757151D01*
X97705970Y-66779329D01*
X97714235Y-66802429D01*
X97720196Y-66826227D01*
X97723796Y-66850496D01*
X97725000Y-66875000D01*
X97725000Y-68125000D01*
X97723796Y-68149504D01*
X97720196Y-68173773D01*
X97714235Y-68197571D01*
X97705970Y-68220671D01*
X97695480Y-68242849D01*
X97682867Y-68263893D01*
X97668253Y-68283598D01*
X97651777Y-68301777D01*
X97633598Y-68318253D01*
X97613893Y-68332867D01*
X97592849Y-68345480D01*
X97570671Y-68355970D01*
X97547571Y-68364235D01*
X97523773Y-68370196D01*
X97499504Y-68373796D01*
X97475000Y-68375000D01*
X96725000Y-68375000D01*
X96700496Y-68373796D01*
X96676227Y-68370196D01*
X96652429Y-68364235D01*
X96629329Y-68355970D01*
X96607151Y-68345480D01*
X96586107Y-68332867D01*
X96566402Y-68318253D01*
X96548223Y-68301777D01*
X96531747Y-68283598D01*
X96517133Y-68263893D01*
X96504520Y-68242849D01*
X96494030Y-68220671D01*
X96485765Y-68197571D01*
X96479804Y-68173773D01*
X96476204Y-68149504D01*
X96475000Y-68125000D01*
X96475000Y-66875000D01*
X96476204Y-66850496D01*
X96479804Y-66826227D01*
X96485765Y-66802429D01*
X96494030Y-66779329D01*
X96504520Y-66757151D01*
X96517133Y-66736107D01*
X96531747Y-66716402D01*
X96548223Y-66698223D01*
X96566402Y-66681747D01*
X96586107Y-66667133D01*
X96607151Y-66654520D01*
X96629329Y-66644030D01*
X96652429Y-66635765D01*
X96676227Y-66629804D01*
X96700496Y-66626204D01*
X96725000Y-66625000D01*
X97475000Y-66625000D01*
X97499504Y-66626204D01*
G37*
G04 #@! TD.AperFunction*
G04 #@! TA.AperFunction,SMDPad,CuDef*
G36*
X100299504Y-66626204D02*
G01*
X100323773Y-66629804D01*
X100347571Y-66635765D01*
X100370671Y-66644030D01*
X100392849Y-66654520D01*
X100413893Y-66667133D01*
X100433598Y-66681747D01*
X100451777Y-66698223D01*
X100468253Y-66716402D01*
X100482867Y-66736107D01*
X100495480Y-66757151D01*
X100505970Y-66779329D01*
X100514235Y-66802429D01*
X100520196Y-66826227D01*
X100523796Y-66850496D01*
X100525000Y-66875000D01*
X100525000Y-68125000D01*
X100523796Y-68149504D01*
X100520196Y-68173773D01*
X100514235Y-68197571D01*
X100505970Y-68220671D01*
X100495480Y-68242849D01*
X100482867Y-68263893D01*
X100468253Y-68283598D01*
X100451777Y-68301777D01*
X100433598Y-68318253D01*
X100413893Y-68332867D01*
X100392849Y-68345480D01*
X100370671Y-68355970D01*
X100347571Y-68364235D01*
X100323773Y-68370196D01*
X100299504Y-68373796D01*
X100275000Y-68375000D01*
X99525000Y-68375000D01*
X99500496Y-68373796D01*
X99476227Y-68370196D01*
X99452429Y-68364235D01*
X99429329Y-68355970D01*
X99407151Y-68345480D01*
X99386107Y-68332867D01*
X99366402Y-68318253D01*
X99348223Y-68301777D01*
X99331747Y-68283598D01*
X99317133Y-68263893D01*
X99304520Y-68242849D01*
X99294030Y-68220671D01*
X99285765Y-68197571D01*
X99279804Y-68173773D01*
X99276204Y-68149504D01*
X99275000Y-68125000D01*
X99275000Y-66875000D01*
X99276204Y-66850496D01*
X99279804Y-66826227D01*
X99285765Y-66802429D01*
X99294030Y-66779329D01*
X99304520Y-66757151D01*
X99317133Y-66736107D01*
X99331747Y-66716402D01*
X99348223Y-66698223D01*
X99366402Y-66681747D01*
X99386107Y-66667133D01*
X99407151Y-66654520D01*
X99429329Y-66644030D01*
X99452429Y-66635765D01*
X99476227Y-66629804D01*
X99500496Y-66626204D01*
X99525000Y-66625000D01*
X100275000Y-66625000D01*
X100299504Y-66626204D01*
G37*
G04 #@! TD.AperFunction*
G04 #@! TA.AperFunction,SMDPad,CuDef*
G36*
X75999504Y-80126204D02*
G01*
X76023773Y-80129804D01*
X76047571Y-80135765D01*
X76070671Y-80144030D01*
X76092849Y-80154520D01*
X76113893Y-80167133D01*
X76133598Y-80181747D01*
X76151777Y-80198223D01*
X76168253Y-80216402D01*
X76182867Y-80236107D01*
X76195480Y-80257151D01*
X76205970Y-80279329D01*
X76214235Y-80302429D01*
X76220196Y-80326227D01*
X76223796Y-80350496D01*
X76225000Y-80375000D01*
X76225000Y-81625000D01*
X76223796Y-81649504D01*
X76220196Y-81673773D01*
X76214235Y-81697571D01*
X76205970Y-81720671D01*
X76195480Y-81742849D01*
X76182867Y-81763893D01*
X76168253Y-81783598D01*
X76151777Y-81801777D01*
X76133598Y-81818253D01*
X76113893Y-81832867D01*
X76092849Y-81845480D01*
X76070671Y-81855970D01*
X76047571Y-81864235D01*
X76023773Y-81870196D01*
X75999504Y-81873796D01*
X75975000Y-81875000D01*
X75225000Y-81875000D01*
X75200496Y-81873796D01*
X75176227Y-81870196D01*
X75152429Y-81864235D01*
X75129329Y-81855970D01*
X75107151Y-81845480D01*
X75086107Y-81832867D01*
X75066402Y-81818253D01*
X75048223Y-81801777D01*
X75031747Y-81783598D01*
X75017133Y-81763893D01*
X75004520Y-81742849D01*
X74994030Y-81720671D01*
X74985765Y-81697571D01*
X74979804Y-81673773D01*
X74976204Y-81649504D01*
X74975000Y-81625000D01*
X74975000Y-80375000D01*
X74976204Y-80350496D01*
X74979804Y-80326227D01*
X74985765Y-80302429D01*
X74994030Y-80279329D01*
X75004520Y-80257151D01*
X75017133Y-80236107D01*
X75031747Y-80216402D01*
X75048223Y-80198223D01*
X75066402Y-80181747D01*
X75086107Y-80167133D01*
X75107151Y-80154520D01*
X75129329Y-80144030D01*
X75152429Y-80135765D01*
X75176227Y-80129804D01*
X75200496Y-80126204D01*
X75225000Y-80125000D01*
X75975000Y-80125000D01*
X75999504Y-80126204D01*
G37*
G04 #@! TD.AperFunction*
G04 #@! TA.AperFunction,SMDPad,CuDef*
G36*
X78799504Y-80126204D02*
G01*
X78823773Y-80129804D01*
X78847571Y-80135765D01*
X78870671Y-80144030D01*
X78892849Y-80154520D01*
X78913893Y-80167133D01*
X78933598Y-80181747D01*
X78951777Y-80198223D01*
X78968253Y-80216402D01*
X78982867Y-80236107D01*
X78995480Y-80257151D01*
X79005970Y-80279329D01*
X79014235Y-80302429D01*
X79020196Y-80326227D01*
X79023796Y-80350496D01*
X79025000Y-80375000D01*
X79025000Y-81625000D01*
X79023796Y-81649504D01*
X79020196Y-81673773D01*
X79014235Y-81697571D01*
X79005970Y-81720671D01*
X78995480Y-81742849D01*
X78982867Y-81763893D01*
X78968253Y-81783598D01*
X78951777Y-81801777D01*
X78933598Y-81818253D01*
X78913893Y-81832867D01*
X78892849Y-81845480D01*
X78870671Y-81855970D01*
X78847571Y-81864235D01*
X78823773Y-81870196D01*
X78799504Y-81873796D01*
X78775000Y-81875000D01*
X78025000Y-81875000D01*
X78000496Y-81873796D01*
X77976227Y-81870196D01*
X77952429Y-81864235D01*
X77929329Y-81855970D01*
X77907151Y-81845480D01*
X77886107Y-81832867D01*
X77866402Y-81818253D01*
X77848223Y-81801777D01*
X77831747Y-81783598D01*
X77817133Y-81763893D01*
X77804520Y-81742849D01*
X77794030Y-81720671D01*
X77785765Y-81697571D01*
X77779804Y-81673773D01*
X77776204Y-81649504D01*
X77775000Y-81625000D01*
X77775000Y-80375000D01*
X77776204Y-80350496D01*
X77779804Y-80326227D01*
X77785765Y-80302429D01*
X77794030Y-80279329D01*
X77804520Y-80257151D01*
X77817133Y-80236107D01*
X77831747Y-80216402D01*
X77848223Y-80198223D01*
X77866402Y-80181747D01*
X77886107Y-80167133D01*
X77907151Y-80154520D01*
X77929329Y-80144030D01*
X77952429Y-80135765D01*
X77976227Y-80129804D01*
X78000496Y-80126204D01*
X78025000Y-80125000D01*
X78775000Y-80125000D01*
X78799504Y-80126204D01*
G37*
G04 #@! TD.AperFunction*
G04 #@! TA.AperFunction,SMDPad,CuDef*
G36*
X91699504Y-73726204D02*
G01*
X91723773Y-73729804D01*
X91747571Y-73735765D01*
X91770671Y-73744030D01*
X91792849Y-73754520D01*
X91813893Y-73767133D01*
X91833598Y-73781747D01*
X91851777Y-73798223D01*
X91868253Y-73816402D01*
X91882867Y-73836107D01*
X91895480Y-73857151D01*
X91905970Y-73879329D01*
X91914235Y-73902429D01*
X91920196Y-73926227D01*
X91923796Y-73950496D01*
X91925000Y-73975000D01*
X91925000Y-75225000D01*
X91923796Y-75249504D01*
X91920196Y-75273773D01*
X91914235Y-75297571D01*
X91905970Y-75320671D01*
X91895480Y-75342849D01*
X91882867Y-75363893D01*
X91868253Y-75383598D01*
X91851777Y-75401777D01*
X91833598Y-75418253D01*
X91813893Y-75432867D01*
X91792849Y-75445480D01*
X91770671Y-75455970D01*
X91747571Y-75464235D01*
X91723773Y-75470196D01*
X91699504Y-75473796D01*
X91675000Y-75475000D01*
X90925000Y-75475000D01*
X90900496Y-75473796D01*
X90876227Y-75470196D01*
X90852429Y-75464235D01*
X90829329Y-75455970D01*
X90807151Y-75445480D01*
X90786107Y-75432867D01*
X90766402Y-75418253D01*
X90748223Y-75401777D01*
X90731747Y-75383598D01*
X90717133Y-75363893D01*
X90704520Y-75342849D01*
X90694030Y-75320671D01*
X90685765Y-75297571D01*
X90679804Y-75273773D01*
X90676204Y-75249504D01*
X90675000Y-75225000D01*
X90675000Y-73975000D01*
X90676204Y-73950496D01*
X90679804Y-73926227D01*
X90685765Y-73902429D01*
X90694030Y-73879329D01*
X90704520Y-73857151D01*
X90717133Y-73836107D01*
X90731747Y-73816402D01*
X90748223Y-73798223D01*
X90766402Y-73781747D01*
X90786107Y-73767133D01*
X90807151Y-73754520D01*
X90829329Y-73744030D01*
X90852429Y-73735765D01*
X90876227Y-73729804D01*
X90900496Y-73726204D01*
X90925000Y-73725000D01*
X91675000Y-73725000D01*
X91699504Y-73726204D01*
G37*
G04 #@! TD.AperFunction*
G04 #@! TA.AperFunction,SMDPad,CuDef*
G36*
X88899504Y-73726204D02*
G01*
X88923773Y-73729804D01*
X88947571Y-73735765D01*
X88970671Y-73744030D01*
X88992849Y-73754520D01*
X89013893Y-73767133D01*
X89033598Y-73781747D01*
X89051777Y-73798223D01*
X89068253Y-73816402D01*
X89082867Y-73836107D01*
X89095480Y-73857151D01*
X89105970Y-73879329D01*
X89114235Y-73902429D01*
X89120196Y-73926227D01*
X89123796Y-73950496D01*
X89125000Y-73975000D01*
X89125000Y-75225000D01*
X89123796Y-75249504D01*
X89120196Y-75273773D01*
X89114235Y-75297571D01*
X89105970Y-75320671D01*
X89095480Y-75342849D01*
X89082867Y-75363893D01*
X89068253Y-75383598D01*
X89051777Y-75401777D01*
X89033598Y-75418253D01*
X89013893Y-75432867D01*
X88992849Y-75445480D01*
X88970671Y-75455970D01*
X88947571Y-75464235D01*
X88923773Y-75470196D01*
X88899504Y-75473796D01*
X88875000Y-75475000D01*
X88125000Y-75475000D01*
X88100496Y-75473796D01*
X88076227Y-75470196D01*
X88052429Y-75464235D01*
X88029329Y-75455970D01*
X88007151Y-75445480D01*
X87986107Y-75432867D01*
X87966402Y-75418253D01*
X87948223Y-75401777D01*
X87931747Y-75383598D01*
X87917133Y-75363893D01*
X87904520Y-75342849D01*
X87894030Y-75320671D01*
X87885765Y-75297571D01*
X87879804Y-75273773D01*
X87876204Y-75249504D01*
X87875000Y-75225000D01*
X87875000Y-73975000D01*
X87876204Y-73950496D01*
X87879804Y-73926227D01*
X87885765Y-73902429D01*
X87894030Y-73879329D01*
X87904520Y-73857151D01*
X87917133Y-73836107D01*
X87931747Y-73816402D01*
X87948223Y-73798223D01*
X87966402Y-73781747D01*
X87986107Y-73767133D01*
X88007151Y-73754520D01*
X88029329Y-73744030D01*
X88052429Y-73735765D01*
X88076227Y-73729804D01*
X88100496Y-73726204D01*
X88125000Y-73725000D01*
X88875000Y-73725000D01*
X88899504Y-73726204D01*
G37*
G04 #@! TD.AperFunction*
G04 #@! TA.AperFunction,SMDPad,CuDef*
G36*
X74259703Y-74500722D02*
G01*
X74274264Y-74502882D01*
X74288543Y-74506459D01*
X74302403Y-74511418D01*
X74315710Y-74517712D01*
X74328336Y-74525280D01*
X74340159Y-74534048D01*
X74351066Y-74543934D01*
X74360952Y-74554841D01*
X74369720Y-74566664D01*
X74377288Y-74579290D01*
X74383582Y-74592597D01*
X74388541Y-74606457D01*
X74392118Y-74620736D01*
X74394278Y-74635297D01*
X74395000Y-74650000D01*
X74395000Y-76300000D01*
X74394278Y-76314703D01*
X74392118Y-76329264D01*
X74388541Y-76343543D01*
X74383582Y-76357403D01*
X74377288Y-76370710D01*
X74369720Y-76383336D01*
X74360952Y-76395159D01*
X74351066Y-76406066D01*
X74340159Y-76415952D01*
X74328336Y-76424720D01*
X74315710Y-76432288D01*
X74302403Y-76438582D01*
X74288543Y-76443541D01*
X74274264Y-76447118D01*
X74259703Y-76449278D01*
X74245000Y-76450000D01*
X73945000Y-76450000D01*
X73930297Y-76449278D01*
X73915736Y-76447118D01*
X73901457Y-76443541D01*
X73887597Y-76438582D01*
X73874290Y-76432288D01*
X73861664Y-76424720D01*
X73849841Y-76415952D01*
X73838934Y-76406066D01*
X73829048Y-76395159D01*
X73820280Y-76383336D01*
X73812712Y-76370710D01*
X73806418Y-76357403D01*
X73801459Y-76343543D01*
X73797882Y-76329264D01*
X73795722Y-76314703D01*
X73795000Y-76300000D01*
X73795000Y-74650000D01*
X73795722Y-74635297D01*
X73797882Y-74620736D01*
X73801459Y-74606457D01*
X73806418Y-74592597D01*
X73812712Y-74579290D01*
X73820280Y-74566664D01*
X73829048Y-74554841D01*
X73838934Y-74543934D01*
X73849841Y-74534048D01*
X73861664Y-74525280D01*
X73874290Y-74517712D01*
X73887597Y-74511418D01*
X73901457Y-74506459D01*
X73915736Y-74502882D01*
X73930297Y-74500722D01*
X73945000Y-74500000D01*
X74245000Y-74500000D01*
X74259703Y-74500722D01*
G37*
G04 #@! TD.AperFunction*
G04 #@! TA.AperFunction,SMDPad,CuDef*
G36*
X75529703Y-74500722D02*
G01*
X75544264Y-74502882D01*
X75558543Y-74506459D01*
X75572403Y-74511418D01*
X75585710Y-74517712D01*
X75598336Y-74525280D01*
X75610159Y-74534048D01*
X75621066Y-74543934D01*
X75630952Y-74554841D01*
X75639720Y-74566664D01*
X75647288Y-74579290D01*
X75653582Y-74592597D01*
X75658541Y-74606457D01*
X75662118Y-74620736D01*
X75664278Y-74635297D01*
X75665000Y-74650000D01*
X75665000Y-76300000D01*
X75664278Y-76314703D01*
X75662118Y-76329264D01*
X75658541Y-76343543D01*
X75653582Y-76357403D01*
X75647288Y-76370710D01*
X75639720Y-76383336D01*
X75630952Y-76395159D01*
X75621066Y-76406066D01*
X75610159Y-76415952D01*
X75598336Y-76424720D01*
X75585710Y-76432288D01*
X75572403Y-76438582D01*
X75558543Y-76443541D01*
X75544264Y-76447118D01*
X75529703Y-76449278D01*
X75515000Y-76450000D01*
X75215000Y-76450000D01*
X75200297Y-76449278D01*
X75185736Y-76447118D01*
X75171457Y-76443541D01*
X75157597Y-76438582D01*
X75144290Y-76432288D01*
X75131664Y-76424720D01*
X75119841Y-76415952D01*
X75108934Y-76406066D01*
X75099048Y-76395159D01*
X75090280Y-76383336D01*
X75082712Y-76370710D01*
X75076418Y-76357403D01*
X75071459Y-76343543D01*
X75067882Y-76329264D01*
X75065722Y-76314703D01*
X75065000Y-76300000D01*
X75065000Y-74650000D01*
X75065722Y-74635297D01*
X75067882Y-74620736D01*
X75071459Y-74606457D01*
X75076418Y-74592597D01*
X75082712Y-74579290D01*
X75090280Y-74566664D01*
X75099048Y-74554841D01*
X75108934Y-74543934D01*
X75119841Y-74534048D01*
X75131664Y-74525280D01*
X75144290Y-74517712D01*
X75157597Y-74511418D01*
X75171457Y-74506459D01*
X75185736Y-74502882D01*
X75200297Y-74500722D01*
X75215000Y-74500000D01*
X75515000Y-74500000D01*
X75529703Y-74500722D01*
G37*
G04 #@! TD.AperFunction*
G04 #@! TA.AperFunction,SMDPad,CuDef*
G36*
X76799703Y-74500722D02*
G01*
X76814264Y-74502882D01*
X76828543Y-74506459D01*
X76842403Y-74511418D01*
X76855710Y-74517712D01*
X76868336Y-74525280D01*
X76880159Y-74534048D01*
X76891066Y-74543934D01*
X76900952Y-74554841D01*
X76909720Y-74566664D01*
X76917288Y-74579290D01*
X76923582Y-74592597D01*
X76928541Y-74606457D01*
X76932118Y-74620736D01*
X76934278Y-74635297D01*
X76935000Y-74650000D01*
X76935000Y-76300000D01*
X76934278Y-76314703D01*
X76932118Y-76329264D01*
X76928541Y-76343543D01*
X76923582Y-76357403D01*
X76917288Y-76370710D01*
X76909720Y-76383336D01*
X76900952Y-76395159D01*
X76891066Y-76406066D01*
X76880159Y-76415952D01*
X76868336Y-76424720D01*
X76855710Y-76432288D01*
X76842403Y-76438582D01*
X76828543Y-76443541D01*
X76814264Y-76447118D01*
X76799703Y-76449278D01*
X76785000Y-76450000D01*
X76485000Y-76450000D01*
X76470297Y-76449278D01*
X76455736Y-76447118D01*
X76441457Y-76443541D01*
X76427597Y-76438582D01*
X76414290Y-76432288D01*
X76401664Y-76424720D01*
X76389841Y-76415952D01*
X76378934Y-76406066D01*
X76369048Y-76395159D01*
X76360280Y-76383336D01*
X76352712Y-76370710D01*
X76346418Y-76357403D01*
X76341459Y-76343543D01*
X76337882Y-76329264D01*
X76335722Y-76314703D01*
X76335000Y-76300000D01*
X76335000Y-74650000D01*
X76335722Y-74635297D01*
X76337882Y-74620736D01*
X76341459Y-74606457D01*
X76346418Y-74592597D01*
X76352712Y-74579290D01*
X76360280Y-74566664D01*
X76369048Y-74554841D01*
X76378934Y-74543934D01*
X76389841Y-74534048D01*
X76401664Y-74525280D01*
X76414290Y-74517712D01*
X76427597Y-74511418D01*
X76441457Y-74506459D01*
X76455736Y-74502882D01*
X76470297Y-74500722D01*
X76485000Y-74500000D01*
X76785000Y-74500000D01*
X76799703Y-74500722D01*
G37*
G04 #@! TD.AperFunction*
G04 #@! TA.AperFunction,SMDPad,CuDef*
G36*
X78069703Y-74500722D02*
G01*
X78084264Y-74502882D01*
X78098543Y-74506459D01*
X78112403Y-74511418D01*
X78125710Y-74517712D01*
X78138336Y-74525280D01*
X78150159Y-74534048D01*
X78161066Y-74543934D01*
X78170952Y-74554841D01*
X78179720Y-74566664D01*
X78187288Y-74579290D01*
X78193582Y-74592597D01*
X78198541Y-74606457D01*
X78202118Y-74620736D01*
X78204278Y-74635297D01*
X78205000Y-74650000D01*
X78205000Y-76300000D01*
X78204278Y-76314703D01*
X78202118Y-76329264D01*
X78198541Y-76343543D01*
X78193582Y-76357403D01*
X78187288Y-76370710D01*
X78179720Y-76383336D01*
X78170952Y-76395159D01*
X78161066Y-76406066D01*
X78150159Y-76415952D01*
X78138336Y-76424720D01*
X78125710Y-76432288D01*
X78112403Y-76438582D01*
X78098543Y-76443541D01*
X78084264Y-76447118D01*
X78069703Y-76449278D01*
X78055000Y-76450000D01*
X77755000Y-76450000D01*
X77740297Y-76449278D01*
X77725736Y-76447118D01*
X77711457Y-76443541D01*
X77697597Y-76438582D01*
X77684290Y-76432288D01*
X77671664Y-76424720D01*
X77659841Y-76415952D01*
X77648934Y-76406066D01*
X77639048Y-76395159D01*
X77630280Y-76383336D01*
X77622712Y-76370710D01*
X77616418Y-76357403D01*
X77611459Y-76343543D01*
X77607882Y-76329264D01*
X77605722Y-76314703D01*
X77605000Y-76300000D01*
X77605000Y-74650000D01*
X77605722Y-74635297D01*
X77607882Y-74620736D01*
X77611459Y-74606457D01*
X77616418Y-74592597D01*
X77622712Y-74579290D01*
X77630280Y-74566664D01*
X77639048Y-74554841D01*
X77648934Y-74543934D01*
X77659841Y-74534048D01*
X77671664Y-74525280D01*
X77684290Y-74517712D01*
X77697597Y-74511418D01*
X77711457Y-74506459D01*
X77725736Y-74502882D01*
X77740297Y-74500722D01*
X77755000Y-74500000D01*
X78055000Y-74500000D01*
X78069703Y-74500722D01*
G37*
G04 #@! TD.AperFunction*
G04 #@! TA.AperFunction,SMDPad,CuDef*
G36*
X78069703Y-69550722D02*
G01*
X78084264Y-69552882D01*
X78098543Y-69556459D01*
X78112403Y-69561418D01*
X78125710Y-69567712D01*
X78138336Y-69575280D01*
X78150159Y-69584048D01*
X78161066Y-69593934D01*
X78170952Y-69604841D01*
X78179720Y-69616664D01*
X78187288Y-69629290D01*
X78193582Y-69642597D01*
X78198541Y-69656457D01*
X78202118Y-69670736D01*
X78204278Y-69685297D01*
X78205000Y-69700000D01*
X78205000Y-71350000D01*
X78204278Y-71364703D01*
X78202118Y-71379264D01*
X78198541Y-71393543D01*
X78193582Y-71407403D01*
X78187288Y-71420710D01*
X78179720Y-71433336D01*
X78170952Y-71445159D01*
X78161066Y-71456066D01*
X78150159Y-71465952D01*
X78138336Y-71474720D01*
X78125710Y-71482288D01*
X78112403Y-71488582D01*
X78098543Y-71493541D01*
X78084264Y-71497118D01*
X78069703Y-71499278D01*
X78055000Y-71500000D01*
X77755000Y-71500000D01*
X77740297Y-71499278D01*
X77725736Y-71497118D01*
X77711457Y-71493541D01*
X77697597Y-71488582D01*
X77684290Y-71482288D01*
X77671664Y-71474720D01*
X77659841Y-71465952D01*
X77648934Y-71456066D01*
X77639048Y-71445159D01*
X77630280Y-71433336D01*
X77622712Y-71420710D01*
X77616418Y-71407403D01*
X77611459Y-71393543D01*
X77607882Y-71379264D01*
X77605722Y-71364703D01*
X77605000Y-71350000D01*
X77605000Y-69700000D01*
X77605722Y-69685297D01*
X77607882Y-69670736D01*
X77611459Y-69656457D01*
X77616418Y-69642597D01*
X77622712Y-69629290D01*
X77630280Y-69616664D01*
X77639048Y-69604841D01*
X77648934Y-69593934D01*
X77659841Y-69584048D01*
X77671664Y-69575280D01*
X77684290Y-69567712D01*
X77697597Y-69561418D01*
X77711457Y-69556459D01*
X77725736Y-69552882D01*
X77740297Y-69550722D01*
X77755000Y-69550000D01*
X78055000Y-69550000D01*
X78069703Y-69550722D01*
G37*
G04 #@! TD.AperFunction*
G04 #@! TA.AperFunction,SMDPad,CuDef*
G36*
X76799703Y-69550722D02*
G01*
X76814264Y-69552882D01*
X76828543Y-69556459D01*
X76842403Y-69561418D01*
X76855710Y-69567712D01*
X76868336Y-69575280D01*
X76880159Y-69584048D01*
X76891066Y-69593934D01*
X76900952Y-69604841D01*
X76909720Y-69616664D01*
X76917288Y-69629290D01*
X76923582Y-69642597D01*
X76928541Y-69656457D01*
X76932118Y-69670736D01*
X76934278Y-69685297D01*
X76935000Y-69700000D01*
X76935000Y-71350000D01*
X76934278Y-71364703D01*
X76932118Y-71379264D01*
X76928541Y-71393543D01*
X76923582Y-71407403D01*
X76917288Y-71420710D01*
X76909720Y-71433336D01*
X76900952Y-71445159D01*
X76891066Y-71456066D01*
X76880159Y-71465952D01*
X76868336Y-71474720D01*
X76855710Y-71482288D01*
X76842403Y-71488582D01*
X76828543Y-71493541D01*
X76814264Y-71497118D01*
X76799703Y-71499278D01*
X76785000Y-71500000D01*
X76485000Y-71500000D01*
X76470297Y-71499278D01*
X76455736Y-71497118D01*
X76441457Y-71493541D01*
X76427597Y-71488582D01*
X76414290Y-71482288D01*
X76401664Y-71474720D01*
X76389841Y-71465952D01*
X76378934Y-71456066D01*
X76369048Y-71445159D01*
X76360280Y-71433336D01*
X76352712Y-71420710D01*
X76346418Y-71407403D01*
X76341459Y-71393543D01*
X76337882Y-71379264D01*
X76335722Y-71364703D01*
X76335000Y-71350000D01*
X76335000Y-69700000D01*
X76335722Y-69685297D01*
X76337882Y-69670736D01*
X76341459Y-69656457D01*
X76346418Y-69642597D01*
X76352712Y-69629290D01*
X76360280Y-69616664D01*
X76369048Y-69604841D01*
X76378934Y-69593934D01*
X76389841Y-69584048D01*
X76401664Y-69575280D01*
X76414290Y-69567712D01*
X76427597Y-69561418D01*
X76441457Y-69556459D01*
X76455736Y-69552882D01*
X76470297Y-69550722D01*
X76485000Y-69550000D01*
X76785000Y-69550000D01*
X76799703Y-69550722D01*
G37*
G04 #@! TD.AperFunction*
G04 #@! TA.AperFunction,SMDPad,CuDef*
G36*
X75529703Y-69550722D02*
G01*
X75544264Y-69552882D01*
X75558543Y-69556459D01*
X75572403Y-69561418D01*
X75585710Y-69567712D01*
X75598336Y-69575280D01*
X75610159Y-69584048D01*
X75621066Y-69593934D01*
X75630952Y-69604841D01*
X75639720Y-69616664D01*
X75647288Y-69629290D01*
X75653582Y-69642597D01*
X75658541Y-69656457D01*
X75662118Y-69670736D01*
X75664278Y-69685297D01*
X75665000Y-69700000D01*
X75665000Y-71350000D01*
X75664278Y-71364703D01*
X75662118Y-71379264D01*
X75658541Y-71393543D01*
X75653582Y-71407403D01*
X75647288Y-71420710D01*
X75639720Y-71433336D01*
X75630952Y-71445159D01*
X75621066Y-71456066D01*
X75610159Y-71465952D01*
X75598336Y-71474720D01*
X75585710Y-71482288D01*
X75572403Y-71488582D01*
X75558543Y-71493541D01*
X75544264Y-71497118D01*
X75529703Y-71499278D01*
X75515000Y-71500000D01*
X75215000Y-71500000D01*
X75200297Y-71499278D01*
X75185736Y-71497118D01*
X75171457Y-71493541D01*
X75157597Y-71488582D01*
X75144290Y-71482288D01*
X75131664Y-71474720D01*
X75119841Y-71465952D01*
X75108934Y-71456066D01*
X75099048Y-71445159D01*
X75090280Y-71433336D01*
X75082712Y-71420710D01*
X75076418Y-71407403D01*
X75071459Y-71393543D01*
X75067882Y-71379264D01*
X75065722Y-71364703D01*
X75065000Y-71350000D01*
X75065000Y-69700000D01*
X75065722Y-69685297D01*
X75067882Y-69670736D01*
X75071459Y-69656457D01*
X75076418Y-69642597D01*
X75082712Y-69629290D01*
X75090280Y-69616664D01*
X75099048Y-69604841D01*
X75108934Y-69593934D01*
X75119841Y-69584048D01*
X75131664Y-69575280D01*
X75144290Y-69567712D01*
X75157597Y-69561418D01*
X75171457Y-69556459D01*
X75185736Y-69552882D01*
X75200297Y-69550722D01*
X75215000Y-69550000D01*
X75515000Y-69550000D01*
X75529703Y-69550722D01*
G37*
G04 #@! TD.AperFunction*
G04 #@! TA.AperFunction,SMDPad,CuDef*
G36*
X74259703Y-69550722D02*
G01*
X74274264Y-69552882D01*
X74288543Y-69556459D01*
X74302403Y-69561418D01*
X74315710Y-69567712D01*
X74328336Y-69575280D01*
X74340159Y-69584048D01*
X74351066Y-69593934D01*
X74360952Y-69604841D01*
X74369720Y-69616664D01*
X74377288Y-69629290D01*
X74383582Y-69642597D01*
X74388541Y-69656457D01*
X74392118Y-69670736D01*
X74394278Y-69685297D01*
X74395000Y-69700000D01*
X74395000Y-71350000D01*
X74394278Y-71364703D01*
X74392118Y-71379264D01*
X74388541Y-71393543D01*
X74383582Y-71407403D01*
X74377288Y-71420710D01*
X74369720Y-71433336D01*
X74360952Y-71445159D01*
X74351066Y-71456066D01*
X74340159Y-71465952D01*
X74328336Y-71474720D01*
X74315710Y-71482288D01*
X74302403Y-71488582D01*
X74288543Y-71493541D01*
X74274264Y-71497118D01*
X74259703Y-71499278D01*
X74245000Y-71500000D01*
X73945000Y-71500000D01*
X73930297Y-71499278D01*
X73915736Y-71497118D01*
X73901457Y-71493541D01*
X73887597Y-71488582D01*
X73874290Y-71482288D01*
X73861664Y-71474720D01*
X73849841Y-71465952D01*
X73838934Y-71456066D01*
X73829048Y-71445159D01*
X73820280Y-71433336D01*
X73812712Y-71420710D01*
X73806418Y-71407403D01*
X73801459Y-71393543D01*
X73797882Y-71379264D01*
X73795722Y-71364703D01*
X73795000Y-71350000D01*
X73795000Y-69700000D01*
X73795722Y-69685297D01*
X73797882Y-69670736D01*
X73801459Y-69656457D01*
X73806418Y-69642597D01*
X73812712Y-69629290D01*
X73820280Y-69616664D01*
X73829048Y-69604841D01*
X73838934Y-69593934D01*
X73849841Y-69584048D01*
X73861664Y-69575280D01*
X73874290Y-69567712D01*
X73887597Y-69561418D01*
X73901457Y-69556459D01*
X73915736Y-69552882D01*
X73930297Y-69550722D01*
X73945000Y-69550000D01*
X74245000Y-69550000D01*
X74259703Y-69550722D01*
G37*
G04 #@! TD.AperFunction*
D22*
X89100000Y-80900000D03*
X94100000Y-80900000D03*
D23*
X98500000Y-65500000D02*
X98500000Y-69500000D01*
X93000000Y-65500000D02*
X93000000Y-69500000D01*
X87500000Y-65500000D02*
X87500000Y-69500000D01*
X80803949Y-73503949D02*
X78807898Y-75500000D01*
X78782898Y-75475000D02*
X78225000Y-75475000D01*
X78807898Y-75500000D02*
X78782898Y-75475000D01*
X80803949Y-73503949D02*
X81807898Y-72500000D01*
X80803949Y-73503949D02*
X80273619Y-72973619D01*
X80273619Y-72973619D02*
X79700000Y-72400000D01*
X77905000Y-75475000D02*
X77905000Y-73205000D01*
X65532000Y-69460000D02*
X65532000Y-66898000D01*
X65532000Y-69460000D02*
X67080000Y-69460000D01*
X69900000Y-67000000D02*
X68530000Y-65630000D01*
X69900000Y-67000000D02*
X70699999Y-66200001D01*
X70699999Y-66200001D02*
X70840000Y-66060000D01*
X69100001Y-67799999D02*
X68350001Y-67799999D01*
X69900000Y-67000000D02*
X69100001Y-67799999D01*
X74949999Y-61143999D02*
X74949999Y-61149999D01*
X73750000Y-59944000D02*
X74949999Y-61143999D01*
X73750000Y-59944000D02*
X75710000Y-57984000D01*
X73750000Y-59944000D02*
X71870000Y-58064000D01*
X73750000Y-59944000D02*
X71700000Y-61994000D01*
X81062500Y-65000000D02*
X80575000Y-65000000D01*
X80575000Y-65000000D02*
X79310000Y-65000000D01*
X81062500Y-65000000D02*
X81062500Y-62977500D01*
X80600000Y-67500000D02*
X79100000Y-67500000D01*
X78937500Y-78700000D02*
X78930000Y-78707500D01*
X78937500Y-78000000D02*
X78937500Y-78700000D01*
X78930000Y-78707500D02*
X78930000Y-79200000D01*
X79425000Y-78000000D02*
X79435000Y-77990000D01*
X78937500Y-78000000D02*
X79425000Y-78000000D01*
X78937500Y-78000000D02*
X79960000Y-78000000D01*
X78937500Y-78000000D02*
X78937500Y-76682500D01*
X78400000Y-81000000D02*
X79690000Y-81000000D01*
X78400000Y-79640000D02*
X78930000Y-79110000D01*
X78400000Y-81000000D02*
X78400000Y-79730000D01*
X100000000Y-74920000D02*
X100000000Y-73167500D01*
X100000000Y-74920000D02*
X97370000Y-74920000D01*
X109500000Y-72040000D02*
X107620000Y-72040000D01*
X109500000Y-73242081D02*
X109412081Y-73330000D01*
X109550000Y-72147919D02*
X109550000Y-73350000D01*
X109412081Y-73330000D02*
X107330000Y-73330000D01*
X71724000Y-69500000D02*
X70500000Y-69500000D01*
X72644000Y-65956000D02*
X72644000Y-68580000D01*
X73100000Y-65500000D02*
X72644000Y-65956000D01*
X76500000Y-65500000D02*
X73100000Y-65500000D01*
X72644000Y-68580000D02*
X71724000Y-69500000D01*
X76900000Y-65900000D02*
X76500000Y-65500000D01*
X76900000Y-67500000D02*
X76900000Y-65900000D01*
X76635000Y-67765000D02*
X76900000Y-67500000D01*
X76635000Y-70525000D02*
X76635000Y-67765000D01*
X71724000Y-69500000D02*
X69900000Y-69500000D01*
X67400000Y-72000000D02*
X69900000Y-69500000D01*
X65532000Y-72000000D02*
X67400000Y-72000000D01*
X86100000Y-67500000D02*
X83400000Y-67500000D01*
X83400000Y-65462500D02*
X82937500Y-65000000D01*
X83400000Y-67500000D02*
X83400000Y-65462500D01*
X83400000Y-69100000D02*
X83400000Y-67500000D01*
X81975000Y-70525000D02*
X83400000Y-69100000D01*
X81975000Y-70525000D02*
X78225000Y-70525000D01*
X76635000Y-75667000D02*
X76635000Y-77587500D01*
X76635000Y-77587500D02*
X77047500Y-78000000D01*
X76635000Y-77572500D02*
X76635000Y-75475000D01*
X77062500Y-78000000D02*
X76635000Y-77572500D01*
X104600000Y-64900000D02*
X104600000Y-62200000D01*
X102000000Y-67500000D02*
X104600000Y-64900000D01*
X99900000Y-67500000D02*
X102000000Y-67500000D01*
X109500000Y-67850000D02*
X109500000Y-69500000D01*
X106550000Y-64900000D02*
X109500000Y-67850000D01*
X104600000Y-64900000D02*
X106550000Y-64900000D01*
X103506000Y-62200000D02*
X101250000Y-59944000D01*
X104600000Y-62200000D02*
X103506000Y-62200000D01*
X85250000Y-77950000D02*
X84396051Y-77096051D01*
X85250000Y-81000000D02*
X85250000Y-77950000D01*
X86892102Y-74600000D02*
X84396051Y-77096051D01*
X88500000Y-74600000D02*
X86892102Y-74600000D01*
X81750000Y-82650000D02*
X80900000Y-83500000D01*
X81750000Y-81000000D02*
X81750000Y-82650000D01*
X80900000Y-83500000D02*
X76300000Y-83500000D01*
X75600000Y-82800000D02*
X75600000Y-81000000D01*
X76300000Y-83500000D02*
X75600000Y-82800000D01*
X75365000Y-80765000D02*
X75365000Y-75475000D01*
X75600000Y-81000000D02*
X75365000Y-80765000D01*
X81750000Y-76150000D02*
X82600000Y-75300000D01*
X81750000Y-81000000D02*
X81750000Y-76150000D01*
X94100000Y-80900000D02*
X96300000Y-83100000D01*
X96300000Y-83100000D02*
X101900000Y-83100000D01*
X101900000Y-83100000D02*
X103000000Y-82000000D01*
X103000000Y-73960000D02*
X104600000Y-72360000D01*
X102940000Y-77460000D02*
X100000000Y-77460000D01*
X103000000Y-82000000D02*
X103000000Y-77400000D01*
X103000000Y-77400000D02*
X102940000Y-77460000D01*
X103000000Y-77400000D02*
X103000000Y-73960000D01*
X74100000Y-70520000D02*
X74095000Y-70525000D01*
X74100000Y-67500000D02*
X74100000Y-70520000D01*
X74095000Y-75475000D02*
X74095000Y-70525000D01*
X74095000Y-83395000D02*
X74095000Y-75475000D01*
X75500000Y-84800000D02*
X74095000Y-83395000D01*
X85200000Y-84800000D02*
X89100000Y-80900000D01*
X75500000Y-84800000D02*
X85200000Y-84800000D01*
X74095000Y-70525000D02*
X75055000Y-70525000D01*
X91300000Y-74600000D02*
X92400000Y-74600000D01*
X97800000Y-80000000D02*
X100000000Y-80000000D01*
X92400000Y-74600000D02*
X97800000Y-80000000D01*
X91600000Y-67500000D02*
X88900000Y-67500000D01*
X97100000Y-67500000D02*
X94400000Y-67500000D01*
D24*
G36*
X107639758Y-68149262D02*
G01*
X107603750Y-68216629D01*
X107539307Y-68429069D01*
X107517547Y-68650000D01*
X107517547Y-70350000D01*
X107539307Y-70570931D01*
X107603750Y-70783371D01*
X107708400Y-70979157D01*
X107849235Y-71150765D01*
X108020843Y-71291600D01*
X108179217Y-71376253D01*
X108103175Y-71535901D01*
X108058524Y-71683110D01*
X108179845Y-71913000D01*
X109373000Y-71913000D01*
X109373000Y-71893000D01*
X109627000Y-71893000D01*
X109627000Y-71913000D01*
X109647000Y-71913000D01*
X109647000Y-72167000D01*
X109627000Y-72167000D01*
X109627000Y-73360814D01*
X109823001Y-73463692D01*
X109823001Y-73618000D01*
X106437822Y-73618000D01*
X106573542Y-73414880D01*
X106741418Y-73009592D01*
X106827000Y-72579340D01*
X106827000Y-72396890D01*
X108058524Y-72396890D01*
X108103175Y-72544099D01*
X108228359Y-72806920D01*
X108402412Y-73040269D01*
X108618645Y-73235178D01*
X108868748Y-73384157D01*
X109143109Y-73481481D01*
X109373000Y-73360814D01*
X109373000Y-72167000D01*
X108179845Y-72167000D01*
X108058524Y-72396890D01*
X106827000Y-72396890D01*
X106827000Y-72140660D01*
X106741418Y-71710408D01*
X106573542Y-71305120D01*
X106329824Y-70940370D01*
X106019630Y-70630176D01*
X105654880Y-70386458D01*
X105249592Y-70218582D01*
X104819340Y-70133000D01*
X104380660Y-70133000D01*
X103950408Y-70218582D01*
X103545120Y-70386458D01*
X103180370Y-70630176D01*
X102870176Y-70940370D01*
X102626458Y-71305120D01*
X102458582Y-71710408D01*
X102373000Y-72140660D01*
X102373000Y-72427496D01*
X101973289Y-72827208D01*
X101915025Y-72875024D01*
X101867209Y-72933288D01*
X101867208Y-72933289D01*
X101724204Y-73107540D01*
X101582411Y-73372815D01*
X101495096Y-73660656D01*
X101465613Y-73960000D01*
X101473001Y-74035011D01*
X101473001Y-74239455D01*
X101375969Y-74053077D01*
X101181315Y-73810563D01*
X100943089Y-73610684D01*
X100670446Y-73461121D01*
X100373863Y-73367622D01*
X100127000Y-73494430D01*
X100127000Y-74793000D01*
X100147000Y-74793000D01*
X100147000Y-75047000D01*
X100127000Y-75047000D01*
X100127000Y-75067000D01*
X99873000Y-75067000D01*
X99873000Y-75047000D01*
X98529406Y-75047000D01*
X98409437Y-75292980D01*
X98480429Y-75511094D01*
X98624031Y-75786923D01*
X98659449Y-75831049D01*
X98474957Y-75982457D01*
X98215094Y-76299102D01*
X98021997Y-76660360D01*
X97903089Y-77052347D01*
X97862939Y-77460000D01*
X97903089Y-77867653D01*
X97936152Y-77976649D01*
X94506523Y-74547020D01*
X98409437Y-74547020D01*
X98529406Y-74793000D01*
X99873000Y-74793000D01*
X99873000Y-73494430D01*
X99626137Y-73367622D01*
X99329554Y-73461121D01*
X99056911Y-73610684D01*
X98818685Y-73810563D01*
X98624031Y-74053077D01*
X98480429Y-74328906D01*
X98409437Y-74547020D01*
X94506523Y-74547020D01*
X93532797Y-73573294D01*
X93484976Y-73515024D01*
X93252460Y-73324203D01*
X92987185Y-73182410D01*
X92743718Y-73108555D01*
X92652542Y-72997458D01*
X92443050Y-72825532D01*
X92204042Y-72697780D01*
X91944703Y-72619110D01*
X91675000Y-72592547D01*
X90925000Y-72592547D01*
X90655297Y-72619110D01*
X90395958Y-72697780D01*
X90156950Y-72825532D01*
X89947458Y-72997458D01*
X89900000Y-73055286D01*
X89852542Y-72997458D01*
X89643050Y-72825532D01*
X89404042Y-72697780D01*
X89144703Y-72619110D01*
X88875000Y-72592547D01*
X88125000Y-72592547D01*
X87855297Y-72619110D01*
X87595958Y-72697780D01*
X87356950Y-72825532D01*
X87147458Y-72997458D01*
X87085462Y-73073000D01*
X86967102Y-73073000D01*
X86892101Y-73065613D01*
X86817100Y-73073000D01*
X86817091Y-73073000D01*
X86592758Y-73095095D01*
X86304917Y-73182410D01*
X86039642Y-73324203D01*
X85807126Y-73515024D01*
X85759310Y-73573288D01*
X84433941Y-74898658D01*
X84404868Y-74752499D01*
X84263376Y-74410907D01*
X84057961Y-74103482D01*
X83796518Y-73842039D01*
X83489093Y-73636624D01*
X83147501Y-73495132D01*
X82784868Y-73423000D01*
X82494708Y-73423000D01*
X82490421Y-73379468D01*
X82454111Y-73259769D01*
X82395147Y-73149455D01*
X82315794Y-73052764D01*
X81985348Y-72726662D01*
X81760841Y-72726662D01*
X80983554Y-73503949D01*
X80997697Y-73518092D01*
X80818092Y-73697697D01*
X80803949Y-73683554D01*
X80026662Y-74460841D01*
X80026662Y-74685348D01*
X80352764Y-75015794D01*
X80449455Y-75095147D01*
X80559769Y-75154111D01*
X80585506Y-75161918D01*
X80474204Y-75297540D01*
X80332411Y-75562815D01*
X80245096Y-75850656D01*
X80215613Y-76150000D01*
X80223001Y-76225011D01*
X80223000Y-79442127D01*
X80158400Y-79520843D01*
X80053750Y-79716629D01*
X79989307Y-79929069D01*
X79967547Y-80150000D01*
X79967547Y-81850000D01*
X79979662Y-81973000D01*
X79653420Y-81973000D01*
X79663072Y-81875000D01*
X79660000Y-81285750D01*
X79501250Y-81127000D01*
X78527000Y-81127000D01*
X78527000Y-81147000D01*
X78273000Y-81147000D01*
X78273000Y-81127000D01*
X78253000Y-81127000D01*
X78253000Y-80873000D01*
X78273000Y-80873000D01*
X78273000Y-79648750D01*
X78527000Y-79648750D01*
X78527000Y-80873000D01*
X79501250Y-80873000D01*
X79660000Y-80714250D01*
X79663072Y-80125000D01*
X79650812Y-80000518D01*
X79614502Y-79880820D01*
X79555537Y-79770506D01*
X79476185Y-79673815D01*
X79379494Y-79594463D01*
X79269180Y-79535498D01*
X79149482Y-79499188D01*
X79025000Y-79486928D01*
X78685750Y-79490000D01*
X78527000Y-79648750D01*
X78273000Y-79648750D01*
X78155380Y-79531130D01*
X78279372Y-79429372D01*
X78361457Y-79329352D01*
X78450000Y-79338072D01*
X78651750Y-79335000D01*
X78810500Y-79176250D01*
X78810500Y-78127000D01*
X79064500Y-78127000D01*
X79064500Y-79176250D01*
X79223250Y-79335000D01*
X79425000Y-79338072D01*
X79549482Y-79325812D01*
X79669180Y-79289502D01*
X79779494Y-79230537D01*
X79876185Y-79151185D01*
X79955537Y-79054494D01*
X80014502Y-78944180D01*
X80050812Y-78824482D01*
X80063072Y-78700000D01*
X80060000Y-78285750D01*
X79901250Y-78127000D01*
X79064500Y-78127000D01*
X78810500Y-78127000D01*
X78790500Y-78127000D01*
X78790500Y-77873000D01*
X78810500Y-77873000D01*
X78810500Y-76823750D01*
X79064500Y-76823750D01*
X79064500Y-77873000D01*
X79901250Y-77873000D01*
X80060000Y-77714250D01*
X80063072Y-77300000D01*
X80050812Y-77175518D01*
X80014502Y-77055820D01*
X79955537Y-76945506D01*
X79876185Y-76848815D01*
X79779494Y-76769463D01*
X79669180Y-76710498D01*
X79549482Y-76674188D01*
X79425000Y-76661928D01*
X79223250Y-76665000D01*
X79064500Y-76823750D01*
X78810500Y-76823750D01*
X78754941Y-76768191D01*
X78794502Y-76694180D01*
X78830812Y-76574482D01*
X78843072Y-76450000D01*
X78840000Y-75760750D01*
X78681250Y-75602000D01*
X78162000Y-75602000D01*
X78162000Y-75399989D01*
X78156880Y-75348000D01*
X78681250Y-75348000D01*
X78840000Y-75189250D01*
X78843072Y-74500000D01*
X78830812Y-74375518D01*
X78794502Y-74255820D01*
X78735537Y-74145506D01*
X78656185Y-74048815D01*
X78559494Y-73969463D01*
X78449180Y-73910498D01*
X78329482Y-73874188D01*
X78205000Y-73861928D01*
X78190750Y-73865000D01*
X78032000Y-74023750D01*
X78032000Y-74364167D01*
X77969832Y-74159226D01*
X77851321Y-73937507D01*
X77691831Y-73743169D01*
X77497493Y-73583679D01*
X77348329Y-73503949D01*
X79105217Y-73503949D01*
X79117477Y-73628430D01*
X79153787Y-73748129D01*
X79212751Y-73858443D01*
X79292104Y-73955134D01*
X79622550Y-74281236D01*
X79847057Y-74281236D01*
X80624344Y-73503949D01*
X79847057Y-72726662D01*
X79622550Y-72726662D01*
X79292104Y-73052764D01*
X79212751Y-73149455D01*
X79153787Y-73259769D01*
X79117477Y-73379468D01*
X79105217Y-73503949D01*
X77348329Y-73503949D01*
X77275774Y-73465168D01*
X77035194Y-73392189D01*
X76785000Y-73367547D01*
X76485000Y-73367547D01*
X76234806Y-73392189D01*
X76000000Y-73463416D01*
X75765194Y-73392189D01*
X75622000Y-73378086D01*
X75622000Y-72621914D01*
X75765194Y-72607811D01*
X76000000Y-72536584D01*
X76234806Y-72607811D01*
X76485000Y-72632453D01*
X76785000Y-72632453D01*
X77035194Y-72607811D01*
X77270000Y-72536584D01*
X77504806Y-72607811D01*
X77755000Y-72632453D01*
X78055000Y-72632453D01*
X78305194Y-72607811D01*
X78545774Y-72534832D01*
X78767493Y-72416321D01*
X78961831Y-72256831D01*
X79121321Y-72062493D01*
X79126930Y-72052000D01*
X80293655Y-72052000D01*
X80026662Y-72322550D01*
X80026662Y-72547057D01*
X80803949Y-73324344D01*
X81581236Y-72547057D01*
X81581236Y-72322550D01*
X81314243Y-72052000D01*
X81899999Y-72052000D01*
X81975000Y-72059387D01*
X82050001Y-72052000D01*
X82050011Y-72052000D01*
X82274344Y-72029905D01*
X82562185Y-71942590D01*
X82827460Y-71800797D01*
X83059976Y-71609976D01*
X83107796Y-71551707D01*
X84426713Y-70232791D01*
X84484976Y-70184976D01*
X84675797Y-69952460D01*
X84817590Y-69687185D01*
X84904905Y-69399344D01*
X84920177Y-69244289D01*
X84956950Y-69274468D01*
X85195958Y-69402220D01*
X85455297Y-69480890D01*
X85725000Y-69507453D01*
X86475000Y-69507453D01*
X86744703Y-69480890D01*
X87004042Y-69402220D01*
X87243050Y-69274468D01*
X87452542Y-69102542D01*
X87500000Y-69044714D01*
X87547458Y-69102542D01*
X87756950Y-69274468D01*
X87995958Y-69402220D01*
X88255297Y-69480890D01*
X88525000Y-69507453D01*
X89275000Y-69507453D01*
X89544703Y-69480890D01*
X89804042Y-69402220D01*
X90043050Y-69274468D01*
X90250000Y-69104628D01*
X90456950Y-69274468D01*
X90695958Y-69402220D01*
X90955297Y-69480890D01*
X91225000Y-69507453D01*
X91975000Y-69507453D01*
X92244703Y-69480890D01*
X92504042Y-69402220D01*
X92743050Y-69274468D01*
X92952542Y-69102542D01*
X93000000Y-69044714D01*
X93047458Y-69102542D01*
X93256950Y-69274468D01*
X93495958Y-69402220D01*
X93755297Y-69480890D01*
X94025000Y-69507453D01*
X94775000Y-69507453D01*
X95044703Y-69480890D01*
X95304042Y-69402220D01*
X95543050Y-69274468D01*
X95750000Y-69104628D01*
X95956950Y-69274468D01*
X96195958Y-69402220D01*
X96455297Y-69480890D01*
X96725000Y-69507453D01*
X97475000Y-69507453D01*
X97744703Y-69480890D01*
X98004042Y-69402220D01*
X98243050Y-69274468D01*
X98452542Y-69102542D01*
X98500000Y-69044714D01*
X98547458Y-69102542D01*
X98756950Y-69274468D01*
X98995958Y-69402220D01*
X99255297Y-69480890D01*
X99525000Y-69507453D01*
X100275000Y-69507453D01*
X100544703Y-69480890D01*
X100804042Y-69402220D01*
X101043050Y-69274468D01*
X101252542Y-69102542D01*
X101314538Y-69027000D01*
X101924999Y-69027000D01*
X102000000Y-69034387D01*
X102075001Y-69027000D01*
X102075011Y-69027000D01*
X102299344Y-69004905D01*
X102587185Y-68917590D01*
X102852460Y-68775797D01*
X103084976Y-68584976D01*
X103132797Y-68526706D01*
X105232504Y-66427000D01*
X105917497Y-66427000D01*
X107639758Y-68149262D01*
G37*
X107639758Y-68149262D02*
X107603750Y-68216629D01*
X107539307Y-68429069D01*
X107517547Y-68650000D01*
X107517547Y-70350000D01*
X107539307Y-70570931D01*
X107603750Y-70783371D01*
X107708400Y-70979157D01*
X107849235Y-71150765D01*
X108020843Y-71291600D01*
X108179217Y-71376253D01*
X108103175Y-71535901D01*
X108058524Y-71683110D01*
X108179845Y-71913000D01*
X109373000Y-71913000D01*
X109373000Y-71893000D01*
X109627000Y-71893000D01*
X109627000Y-71913000D01*
X109647000Y-71913000D01*
X109647000Y-72167000D01*
X109627000Y-72167000D01*
X109627000Y-73360814D01*
X109823001Y-73463692D01*
X109823001Y-73618000D01*
X106437822Y-73618000D01*
X106573542Y-73414880D01*
X106741418Y-73009592D01*
X106827000Y-72579340D01*
X106827000Y-72396890D01*
X108058524Y-72396890D01*
X108103175Y-72544099D01*
X108228359Y-72806920D01*
X108402412Y-73040269D01*
X108618645Y-73235178D01*
X108868748Y-73384157D01*
X109143109Y-73481481D01*
X109373000Y-73360814D01*
X109373000Y-72167000D01*
X108179845Y-72167000D01*
X108058524Y-72396890D01*
X106827000Y-72396890D01*
X106827000Y-72140660D01*
X106741418Y-71710408D01*
X106573542Y-71305120D01*
X106329824Y-70940370D01*
X106019630Y-70630176D01*
X105654880Y-70386458D01*
X105249592Y-70218582D01*
X104819340Y-70133000D01*
X104380660Y-70133000D01*
X103950408Y-70218582D01*
X103545120Y-70386458D01*
X103180370Y-70630176D01*
X102870176Y-70940370D01*
X102626458Y-71305120D01*
X102458582Y-71710408D01*
X102373000Y-72140660D01*
X102373000Y-72427496D01*
X101973289Y-72827208D01*
X101915025Y-72875024D01*
X101867209Y-72933288D01*
X101867208Y-72933289D01*
X101724204Y-73107540D01*
X101582411Y-73372815D01*
X101495096Y-73660656D01*
X101465613Y-73960000D01*
X101473001Y-74035011D01*
X101473001Y-74239455D01*
X101375969Y-74053077D01*
X101181315Y-73810563D01*
X100943089Y-73610684D01*
X100670446Y-73461121D01*
X100373863Y-73367622D01*
X100127000Y-73494430D01*
X100127000Y-74793000D01*
X100147000Y-74793000D01*
X100147000Y-75047000D01*
X100127000Y-75047000D01*
X100127000Y-75067000D01*
X99873000Y-75067000D01*
X99873000Y-75047000D01*
X98529406Y-75047000D01*
X98409437Y-75292980D01*
X98480429Y-75511094D01*
X98624031Y-75786923D01*
X98659449Y-75831049D01*
X98474957Y-75982457D01*
X98215094Y-76299102D01*
X98021997Y-76660360D01*
X97903089Y-77052347D01*
X97862939Y-77460000D01*
X97903089Y-77867653D01*
X97936152Y-77976649D01*
X94506523Y-74547020D01*
X98409437Y-74547020D01*
X98529406Y-74793000D01*
X99873000Y-74793000D01*
X99873000Y-73494430D01*
X99626137Y-73367622D01*
X99329554Y-73461121D01*
X99056911Y-73610684D01*
X98818685Y-73810563D01*
X98624031Y-74053077D01*
X98480429Y-74328906D01*
X98409437Y-74547020D01*
X94506523Y-74547020D01*
X93532797Y-73573294D01*
X93484976Y-73515024D01*
X93252460Y-73324203D01*
X92987185Y-73182410D01*
X92743718Y-73108555D01*
X92652542Y-72997458D01*
X92443050Y-72825532D01*
X92204042Y-72697780D01*
X91944703Y-72619110D01*
X91675000Y-72592547D01*
X90925000Y-72592547D01*
X90655297Y-72619110D01*
X90395958Y-72697780D01*
X90156950Y-72825532D01*
X89947458Y-72997458D01*
X89900000Y-73055286D01*
X89852542Y-72997458D01*
X89643050Y-72825532D01*
X89404042Y-72697780D01*
X89144703Y-72619110D01*
X88875000Y-72592547D01*
X88125000Y-72592547D01*
X87855297Y-72619110D01*
X87595958Y-72697780D01*
X87356950Y-72825532D01*
X87147458Y-72997458D01*
X87085462Y-73073000D01*
X86967102Y-73073000D01*
X86892101Y-73065613D01*
X86817100Y-73073000D01*
X86817091Y-73073000D01*
X86592758Y-73095095D01*
X86304917Y-73182410D01*
X86039642Y-73324203D01*
X85807126Y-73515024D01*
X85759310Y-73573288D01*
X84433941Y-74898658D01*
X84404868Y-74752499D01*
X84263376Y-74410907D01*
X84057961Y-74103482D01*
X83796518Y-73842039D01*
X83489093Y-73636624D01*
X83147501Y-73495132D01*
X82784868Y-73423000D01*
X82494708Y-73423000D01*
X82490421Y-73379468D01*
X82454111Y-73259769D01*
X82395147Y-73149455D01*
X82315794Y-73052764D01*
X81985348Y-72726662D01*
X81760841Y-72726662D01*
X80983554Y-73503949D01*
X80997697Y-73518092D01*
X80818092Y-73697697D01*
X80803949Y-73683554D01*
X80026662Y-74460841D01*
X80026662Y-74685348D01*
X80352764Y-75015794D01*
X80449455Y-75095147D01*
X80559769Y-75154111D01*
X80585506Y-75161918D01*
X80474204Y-75297540D01*
X80332411Y-75562815D01*
X80245096Y-75850656D01*
X80215613Y-76150000D01*
X80223001Y-76225011D01*
X80223000Y-79442127D01*
X80158400Y-79520843D01*
X80053750Y-79716629D01*
X79989307Y-79929069D01*
X79967547Y-80150000D01*
X79967547Y-81850000D01*
X79979662Y-81973000D01*
X79653420Y-81973000D01*
X79663072Y-81875000D01*
X79660000Y-81285750D01*
X79501250Y-81127000D01*
X78527000Y-81127000D01*
X78527000Y-81147000D01*
X78273000Y-81147000D01*
X78273000Y-81127000D01*
X78253000Y-81127000D01*
X78253000Y-80873000D01*
X78273000Y-80873000D01*
X78273000Y-79648750D01*
X78527000Y-79648750D01*
X78527000Y-80873000D01*
X79501250Y-80873000D01*
X79660000Y-80714250D01*
X79663072Y-80125000D01*
X79650812Y-80000518D01*
X79614502Y-79880820D01*
X79555537Y-79770506D01*
X79476185Y-79673815D01*
X79379494Y-79594463D01*
X79269180Y-79535498D01*
X79149482Y-79499188D01*
X79025000Y-79486928D01*
X78685750Y-79490000D01*
X78527000Y-79648750D01*
X78273000Y-79648750D01*
X78155380Y-79531130D01*
X78279372Y-79429372D01*
X78361457Y-79329352D01*
X78450000Y-79338072D01*
X78651750Y-79335000D01*
X78810500Y-79176250D01*
X78810500Y-78127000D01*
X79064500Y-78127000D01*
X79064500Y-79176250D01*
X79223250Y-79335000D01*
X79425000Y-79338072D01*
X79549482Y-79325812D01*
X79669180Y-79289502D01*
X79779494Y-79230537D01*
X79876185Y-79151185D01*
X79955537Y-79054494D01*
X80014502Y-78944180D01*
X80050812Y-78824482D01*
X80063072Y-78700000D01*
X80060000Y-78285750D01*
X79901250Y-78127000D01*
X79064500Y-78127000D01*
X78810500Y-78127000D01*
X78790500Y-78127000D01*
X78790500Y-77873000D01*
X78810500Y-77873000D01*
X78810500Y-76823750D01*
X79064500Y-76823750D01*
X79064500Y-77873000D01*
X79901250Y-77873000D01*
X80060000Y-77714250D01*
X80063072Y-77300000D01*
X80050812Y-77175518D01*
X80014502Y-77055820D01*
X79955537Y-76945506D01*
X79876185Y-76848815D01*
X79779494Y-76769463D01*
X79669180Y-76710498D01*
X79549482Y-76674188D01*
X79425000Y-76661928D01*
X79223250Y-76665000D01*
X79064500Y-76823750D01*
X78810500Y-76823750D01*
X78754941Y-76768191D01*
X78794502Y-76694180D01*
X78830812Y-76574482D01*
X78843072Y-76450000D01*
X78840000Y-75760750D01*
X78681250Y-75602000D01*
X78162000Y-75602000D01*
X78162000Y-75399989D01*
X78156880Y-75348000D01*
X78681250Y-75348000D01*
X78840000Y-75189250D01*
X78843072Y-74500000D01*
X78830812Y-74375518D01*
X78794502Y-74255820D01*
X78735537Y-74145506D01*
X78656185Y-74048815D01*
X78559494Y-73969463D01*
X78449180Y-73910498D01*
X78329482Y-73874188D01*
X78205000Y-73861928D01*
X78190750Y-73865000D01*
X78032000Y-74023750D01*
X78032000Y-74364167D01*
X77969832Y-74159226D01*
X77851321Y-73937507D01*
X77691831Y-73743169D01*
X77497493Y-73583679D01*
X77348329Y-73503949D01*
X79105217Y-73503949D01*
X79117477Y-73628430D01*
X79153787Y-73748129D01*
X79212751Y-73858443D01*
X79292104Y-73955134D01*
X79622550Y-74281236D01*
X79847057Y-74281236D01*
X80624344Y-73503949D01*
X79847057Y-72726662D01*
X79622550Y-72726662D01*
X79292104Y-73052764D01*
X79212751Y-73149455D01*
X79153787Y-73259769D01*
X79117477Y-73379468D01*
X79105217Y-73503949D01*
X77348329Y-73503949D01*
X77275774Y-73465168D01*
X77035194Y-73392189D01*
X76785000Y-73367547D01*
X76485000Y-73367547D01*
X76234806Y-73392189D01*
X76000000Y-73463416D01*
X75765194Y-73392189D01*
X75622000Y-73378086D01*
X75622000Y-72621914D01*
X75765194Y-72607811D01*
X76000000Y-72536584D01*
X76234806Y-72607811D01*
X76485000Y-72632453D01*
X76785000Y-72632453D01*
X77035194Y-72607811D01*
X77270000Y-72536584D01*
X77504806Y-72607811D01*
X77755000Y-72632453D01*
X78055000Y-72632453D01*
X78305194Y-72607811D01*
X78545774Y-72534832D01*
X78767493Y-72416321D01*
X78961831Y-72256831D01*
X79121321Y-72062493D01*
X79126930Y-72052000D01*
X80293655Y-72052000D01*
X80026662Y-72322550D01*
X80026662Y-72547057D01*
X80803949Y-73324344D01*
X81581236Y-72547057D01*
X81581236Y-72322550D01*
X81314243Y-72052000D01*
X81899999Y-72052000D01*
X81975000Y-72059387D01*
X82050001Y-72052000D01*
X82050011Y-72052000D01*
X82274344Y-72029905D01*
X82562185Y-71942590D01*
X82827460Y-71800797D01*
X83059976Y-71609976D01*
X83107796Y-71551707D01*
X84426713Y-70232791D01*
X84484976Y-70184976D01*
X84675797Y-69952460D01*
X84817590Y-69687185D01*
X84904905Y-69399344D01*
X84920177Y-69244289D01*
X84956950Y-69274468D01*
X85195958Y-69402220D01*
X85455297Y-69480890D01*
X85725000Y-69507453D01*
X86475000Y-69507453D01*
X86744703Y-69480890D01*
X87004042Y-69402220D01*
X87243050Y-69274468D01*
X87452542Y-69102542D01*
X87500000Y-69044714D01*
X87547458Y-69102542D01*
X87756950Y-69274468D01*
X87995958Y-69402220D01*
X88255297Y-69480890D01*
X88525000Y-69507453D01*
X89275000Y-69507453D01*
X89544703Y-69480890D01*
X89804042Y-69402220D01*
X90043050Y-69274468D01*
X90250000Y-69104628D01*
X90456950Y-69274468D01*
X90695958Y-69402220D01*
X90955297Y-69480890D01*
X91225000Y-69507453D01*
X91975000Y-69507453D01*
X92244703Y-69480890D01*
X92504042Y-69402220D01*
X92743050Y-69274468D01*
X92952542Y-69102542D01*
X93000000Y-69044714D01*
X93047458Y-69102542D01*
X93256950Y-69274468D01*
X93495958Y-69402220D01*
X93755297Y-69480890D01*
X94025000Y-69507453D01*
X94775000Y-69507453D01*
X95044703Y-69480890D01*
X95304042Y-69402220D01*
X95543050Y-69274468D01*
X95750000Y-69104628D01*
X95956950Y-69274468D01*
X96195958Y-69402220D01*
X96455297Y-69480890D01*
X96725000Y-69507453D01*
X97475000Y-69507453D01*
X97744703Y-69480890D01*
X98004042Y-69402220D01*
X98243050Y-69274468D01*
X98452542Y-69102542D01*
X98500000Y-69044714D01*
X98547458Y-69102542D01*
X98756950Y-69274468D01*
X98995958Y-69402220D01*
X99255297Y-69480890D01*
X99525000Y-69507453D01*
X100275000Y-69507453D01*
X100544703Y-69480890D01*
X100804042Y-69402220D01*
X101043050Y-69274468D01*
X101252542Y-69102542D01*
X101314538Y-69027000D01*
X101924999Y-69027000D01*
X102000000Y-69034387D01*
X102075001Y-69027000D01*
X102075011Y-69027000D01*
X102299344Y-69004905D01*
X102587185Y-68917590D01*
X102852460Y-68775797D01*
X103084976Y-68584976D01*
X103132797Y-68526706D01*
X105232504Y-66427000D01*
X105917497Y-66427000D01*
X107639758Y-68149262D01*
G36*
X105957639Y-56301801D02*
G01*
X105577801Y-56681639D01*
X105279364Y-57128281D01*
X105073797Y-57624563D01*
X104969000Y-58151414D01*
X104969000Y-58688586D01*
X105073797Y-59215437D01*
X105279364Y-59711719D01*
X105450303Y-59967547D01*
X103577000Y-59967547D01*
X103577000Y-59714811D01*
X103487574Y-59265239D01*
X103312160Y-58841752D01*
X103057499Y-58460624D01*
X102733376Y-58136501D01*
X102352248Y-57881840D01*
X101928761Y-57706426D01*
X101479189Y-57617000D01*
X101020811Y-57617000D01*
X100571239Y-57706426D01*
X100147752Y-57881840D01*
X99766624Y-58136501D01*
X99442501Y-58460624D01*
X99187840Y-58841752D01*
X99012426Y-59265239D01*
X98923000Y-59714811D01*
X98923000Y-60173189D01*
X99012426Y-60622761D01*
X99187840Y-61046248D01*
X99442501Y-61427376D01*
X99766624Y-61751499D01*
X100147752Y-62006160D01*
X100571239Y-62181574D01*
X101020811Y-62271000D01*
X101417496Y-62271000D01*
X102367547Y-63221051D01*
X102367547Y-63300000D01*
X102389307Y-63520931D01*
X102453750Y-63733371D01*
X102558400Y-63929157D01*
X102699235Y-64100765D01*
X102870843Y-64241600D01*
X103019459Y-64321037D01*
X101367497Y-65973000D01*
X101314538Y-65973000D01*
X101252542Y-65897458D01*
X101043050Y-65725532D01*
X100804042Y-65597780D01*
X100544703Y-65519110D01*
X100275000Y-65492547D01*
X99525000Y-65492547D01*
X99255297Y-65519110D01*
X98995958Y-65597780D01*
X98756950Y-65725532D01*
X98547458Y-65897458D01*
X98500000Y-65955286D01*
X98452542Y-65897458D01*
X98243050Y-65725532D01*
X98004042Y-65597780D01*
X97744703Y-65519110D01*
X97475000Y-65492547D01*
X96725000Y-65492547D01*
X96455297Y-65519110D01*
X96195958Y-65597780D01*
X95956950Y-65725532D01*
X95750000Y-65895372D01*
X95543050Y-65725532D01*
X95304042Y-65597780D01*
X95044703Y-65519110D01*
X94775000Y-65492547D01*
X94025000Y-65492547D01*
X93755297Y-65519110D01*
X93495958Y-65597780D01*
X93256950Y-65725532D01*
X93047458Y-65897458D01*
X93000000Y-65955286D01*
X92952542Y-65897458D01*
X92743050Y-65725532D01*
X92504042Y-65597780D01*
X92244703Y-65519110D01*
X91975000Y-65492547D01*
X91225000Y-65492547D01*
X90955297Y-65519110D01*
X90695958Y-65597780D01*
X90456950Y-65725532D01*
X90250000Y-65895372D01*
X90043050Y-65725532D01*
X89804042Y-65597780D01*
X89544703Y-65519110D01*
X89275000Y-65492547D01*
X88525000Y-65492547D01*
X88255297Y-65519110D01*
X87995958Y-65597780D01*
X87756950Y-65725532D01*
X87547458Y-65897458D01*
X87500000Y-65955286D01*
X87452542Y-65897458D01*
X87243050Y-65725532D01*
X87004042Y-65597780D01*
X86744703Y-65519110D01*
X86475000Y-65492547D01*
X85725000Y-65492547D01*
X85455297Y-65519110D01*
X85195958Y-65597780D01*
X84956950Y-65725532D01*
X84927000Y-65750111D01*
X84927000Y-65537504D01*
X84934387Y-65462500D01*
X84927000Y-65387496D01*
X84927000Y-65387489D01*
X84904905Y-65163156D01*
X84893938Y-65127000D01*
X84861248Y-65019236D01*
X84817590Y-64875315D01*
X84675797Y-64610040D01*
X84548733Y-64455212D01*
X84531010Y-64275266D01*
X84452696Y-64017100D01*
X84325521Y-63779173D01*
X84154372Y-63570628D01*
X83945827Y-63399479D01*
X83707900Y-63272304D01*
X83449734Y-63193990D01*
X83181250Y-63167547D01*
X82693750Y-63167547D01*
X82425266Y-63193990D01*
X82167100Y-63272304D01*
X81929173Y-63399479D01*
X81720628Y-63570628D01*
X81638543Y-63670648D01*
X81550000Y-63661928D01*
X81348250Y-63665000D01*
X81189500Y-63823750D01*
X81189500Y-64873000D01*
X81209500Y-64873000D01*
X81209500Y-65127000D01*
X81189500Y-65127000D01*
X81189500Y-65147000D01*
X80935500Y-65147000D01*
X80935500Y-65127000D01*
X80098750Y-65127000D01*
X79940000Y-65285750D01*
X79936928Y-65700000D01*
X79949188Y-65824482D01*
X79985498Y-65944180D01*
X80008510Y-65987231D01*
X79975000Y-65986928D01*
X79850518Y-65999188D01*
X79730820Y-66035498D01*
X79620506Y-66094463D01*
X79523815Y-66173815D01*
X79444463Y-66270506D01*
X79385498Y-66380820D01*
X79349188Y-66500518D01*
X79336928Y-66625000D01*
X79340000Y-67214250D01*
X79498750Y-67373000D01*
X80473000Y-67373000D01*
X80473000Y-67353000D01*
X80727000Y-67353000D01*
X80727000Y-67373000D01*
X80747000Y-67373000D01*
X80747000Y-67627000D01*
X80727000Y-67627000D01*
X80727000Y-67647000D01*
X80473000Y-67647000D01*
X80473000Y-67627000D01*
X79498750Y-67627000D01*
X79340000Y-67785750D01*
X79336928Y-68375000D01*
X79349188Y-68499482D01*
X79385498Y-68619180D01*
X79444463Y-68729494D01*
X79523815Y-68826185D01*
X79620506Y-68905537D01*
X79730820Y-68964502D01*
X79841248Y-68998000D01*
X79126930Y-68998000D01*
X79121321Y-68987507D01*
X78961831Y-68793169D01*
X78767493Y-68633679D01*
X78587570Y-68537508D01*
X78630890Y-68394703D01*
X78657453Y-68125000D01*
X78657453Y-66875000D01*
X78630890Y-66605297D01*
X78552220Y-66345958D01*
X78427000Y-66111687D01*
X78427000Y-65975000D01*
X78434387Y-65899999D01*
X78427000Y-65824998D01*
X78427000Y-65824989D01*
X78404905Y-65600656D01*
X78317590Y-65312815D01*
X78175797Y-65047540D01*
X77984976Y-64815024D01*
X77926706Y-64767203D01*
X77632797Y-64473294D01*
X77584976Y-64415024D01*
X77444819Y-64300000D01*
X79936928Y-64300000D01*
X79940000Y-64714250D01*
X80098750Y-64873000D01*
X80935500Y-64873000D01*
X80935500Y-63823750D01*
X80776750Y-63665000D01*
X80575000Y-63661928D01*
X80450518Y-63674188D01*
X80330820Y-63710498D01*
X80220506Y-63769463D01*
X80123815Y-63848815D01*
X80044463Y-63945506D01*
X79985498Y-64055820D01*
X79949188Y-64175518D01*
X79936928Y-64300000D01*
X77444819Y-64300000D01*
X77352460Y-64224203D01*
X77087185Y-64082410D01*
X76799344Y-63995095D01*
X76575011Y-63973000D01*
X76575001Y-63973000D01*
X76500000Y-63965613D01*
X76424999Y-63973000D01*
X73175000Y-63973000D01*
X73099999Y-63965613D01*
X73024998Y-63973000D01*
X73024989Y-63973000D01*
X72800656Y-63995095D01*
X72512815Y-64082410D01*
X72247540Y-64224203D01*
X72015024Y-64415024D01*
X71967203Y-64473294D01*
X71617294Y-64823203D01*
X71559024Y-64871024D01*
X71368203Y-65103541D01*
X71226410Y-65368816D01*
X71139095Y-65656657D01*
X71117000Y-65880990D01*
X71117000Y-65880999D01*
X71109613Y-65956000D01*
X71117000Y-66031002D01*
X71117000Y-66252714D01*
X70892702Y-66186903D01*
X70079605Y-67000000D01*
X70093748Y-67014143D01*
X69914143Y-67193748D01*
X69900000Y-67179605D01*
X69885858Y-67193748D01*
X69706253Y-67014143D01*
X69720395Y-67000000D01*
X68907298Y-66186903D01*
X68663329Y-66258486D01*
X68542429Y-66513996D01*
X68473700Y-66788184D01*
X68459783Y-67070512D01*
X68501213Y-67350130D01*
X68596397Y-67616292D01*
X68663329Y-67741514D01*
X68907296Y-67813097D01*
X68808980Y-67911413D01*
X68671609Y-68003201D01*
X68403201Y-68271609D01*
X68192315Y-68587223D01*
X68047053Y-68937915D01*
X67983605Y-69256891D01*
X67022658Y-70217839D01*
X67011157Y-70208400D01*
X66852783Y-70123747D01*
X66928825Y-69964099D01*
X66973476Y-69816890D01*
X66852155Y-69587000D01*
X65659000Y-69587000D01*
X65659000Y-69607000D01*
X65405000Y-69607000D01*
X65405000Y-69587000D01*
X65385000Y-69587000D01*
X65385000Y-69333000D01*
X65405000Y-69333000D01*
X65405000Y-68139186D01*
X65659000Y-68139186D01*
X65659000Y-69333000D01*
X66852155Y-69333000D01*
X66973476Y-69103110D01*
X66928825Y-68955901D01*
X66803641Y-68693080D01*
X66629588Y-68459731D01*
X66413355Y-68264822D01*
X66163252Y-68115843D01*
X65888891Y-68018519D01*
X65659000Y-68139186D01*
X65405000Y-68139186D01*
X65177000Y-68019512D01*
X65177000Y-66007298D01*
X69086903Y-66007298D01*
X69900000Y-66820395D01*
X70713097Y-66007298D01*
X70641514Y-65763329D01*
X70386004Y-65642429D01*
X70111816Y-65573700D01*
X69829488Y-65559783D01*
X69549870Y-65601213D01*
X69283708Y-65696397D01*
X69158486Y-65763329D01*
X69086903Y-66007298D01*
X65177000Y-66007298D01*
X65177000Y-61221980D01*
X72651626Y-61221980D01*
X72771514Y-61506836D01*
X73095210Y-61667699D01*
X73444069Y-61762322D01*
X73804684Y-61787067D01*
X74163198Y-61740985D01*
X74505833Y-61625846D01*
X74728486Y-61506836D01*
X74848374Y-61221980D01*
X73750000Y-60123605D01*
X72651626Y-61221980D01*
X65177000Y-61221980D01*
X65177000Y-59756072D01*
X65445801Y-60158361D01*
X65825639Y-60538199D01*
X66272281Y-60836636D01*
X66768563Y-61042203D01*
X67295414Y-61147000D01*
X67832586Y-61147000D01*
X68359437Y-61042203D01*
X68855719Y-60836636D01*
X69302361Y-60538199D01*
X69682199Y-60158361D01*
X69788891Y-59998684D01*
X71906933Y-59998684D01*
X71953015Y-60357198D01*
X72068154Y-60699833D01*
X72187164Y-60922486D01*
X72472020Y-61042374D01*
X73570395Y-59944000D01*
X73929605Y-59944000D01*
X75027980Y-61042374D01*
X75312836Y-60922486D01*
X75473699Y-60598790D01*
X75568322Y-60249931D01*
X75593067Y-59889316D01*
X75546985Y-59530802D01*
X75431846Y-59188167D01*
X75312836Y-58965514D01*
X75027980Y-58845626D01*
X73929605Y-59944000D01*
X73570395Y-59944000D01*
X72472020Y-58845626D01*
X72187164Y-58965514D01*
X72026301Y-59289210D01*
X71931678Y-59638069D01*
X71906933Y-59998684D01*
X69788891Y-59998684D01*
X69980636Y-59711719D01*
X70186203Y-59215437D01*
X70291000Y-58688586D01*
X70291000Y-58666020D01*
X72651626Y-58666020D01*
X73750000Y-59764395D01*
X74848374Y-58666020D01*
X74728486Y-58381164D01*
X74404790Y-58220301D01*
X74055931Y-58125678D01*
X73695316Y-58100933D01*
X73336802Y-58147015D01*
X72994167Y-58262154D01*
X72771514Y-58381164D01*
X72651626Y-58666020D01*
X70291000Y-58666020D01*
X70291000Y-58151414D01*
X70186203Y-57624563D01*
X69980636Y-57128281D01*
X69682199Y-56681639D01*
X69302361Y-56301801D01*
X69115583Y-56177000D01*
X106144417Y-56177000D01*
X105957639Y-56301801D01*
G37*
X105957639Y-56301801D02*
X105577801Y-56681639D01*
X105279364Y-57128281D01*
X105073797Y-57624563D01*
X104969000Y-58151414D01*
X104969000Y-58688586D01*
X105073797Y-59215437D01*
X105279364Y-59711719D01*
X105450303Y-59967547D01*
X103577000Y-59967547D01*
X103577000Y-59714811D01*
X103487574Y-59265239D01*
X103312160Y-58841752D01*
X103057499Y-58460624D01*
X102733376Y-58136501D01*
X102352248Y-57881840D01*
X101928761Y-57706426D01*
X101479189Y-57617000D01*
X101020811Y-57617000D01*
X100571239Y-57706426D01*
X100147752Y-57881840D01*
X99766624Y-58136501D01*
X99442501Y-58460624D01*
X99187840Y-58841752D01*
X99012426Y-59265239D01*
X98923000Y-59714811D01*
X98923000Y-60173189D01*
X99012426Y-60622761D01*
X99187840Y-61046248D01*
X99442501Y-61427376D01*
X99766624Y-61751499D01*
X100147752Y-62006160D01*
X100571239Y-62181574D01*
X101020811Y-62271000D01*
X101417496Y-62271000D01*
X102367547Y-63221051D01*
X102367547Y-63300000D01*
X102389307Y-63520931D01*
X102453750Y-63733371D01*
X102558400Y-63929157D01*
X102699235Y-64100765D01*
X102870843Y-64241600D01*
X103019459Y-64321037D01*
X101367497Y-65973000D01*
X101314538Y-65973000D01*
X101252542Y-65897458D01*
X101043050Y-65725532D01*
X100804042Y-65597780D01*
X100544703Y-65519110D01*
X100275000Y-65492547D01*
X99525000Y-65492547D01*
X99255297Y-65519110D01*
X98995958Y-65597780D01*
X98756950Y-65725532D01*
X98547458Y-65897458D01*
X98500000Y-65955286D01*
X98452542Y-65897458D01*
X98243050Y-65725532D01*
X98004042Y-65597780D01*
X97744703Y-65519110D01*
X97475000Y-65492547D01*
X96725000Y-65492547D01*
X96455297Y-65519110D01*
X96195958Y-65597780D01*
X95956950Y-65725532D01*
X95750000Y-65895372D01*
X95543050Y-65725532D01*
X95304042Y-65597780D01*
X95044703Y-65519110D01*
X94775000Y-65492547D01*
X94025000Y-65492547D01*
X93755297Y-65519110D01*
X93495958Y-65597780D01*
X93256950Y-65725532D01*
X93047458Y-65897458D01*
X93000000Y-65955286D01*
X92952542Y-65897458D01*
X92743050Y-65725532D01*
X92504042Y-65597780D01*
X92244703Y-65519110D01*
X91975000Y-65492547D01*
X91225000Y-65492547D01*
X90955297Y-65519110D01*
X90695958Y-65597780D01*
X90456950Y-65725532D01*
X90250000Y-65895372D01*
X90043050Y-65725532D01*
X89804042Y-65597780D01*
X89544703Y-65519110D01*
X89275000Y-65492547D01*
X88525000Y-65492547D01*
X88255297Y-65519110D01*
X87995958Y-65597780D01*
X87756950Y-65725532D01*
X87547458Y-65897458D01*
X87500000Y-65955286D01*
X87452542Y-65897458D01*
X87243050Y-65725532D01*
X87004042Y-65597780D01*
X86744703Y-65519110D01*
X86475000Y-65492547D01*
X85725000Y-65492547D01*
X85455297Y-65519110D01*
X85195958Y-65597780D01*
X84956950Y-65725532D01*
X84927000Y-65750111D01*
X84927000Y-65537504D01*
X84934387Y-65462500D01*
X84927000Y-65387496D01*
X84927000Y-65387489D01*
X84904905Y-65163156D01*
X84893938Y-65127000D01*
X84861248Y-65019236D01*
X84817590Y-64875315D01*
X84675797Y-64610040D01*
X84548733Y-64455212D01*
X84531010Y-64275266D01*
X84452696Y-64017100D01*
X84325521Y-63779173D01*
X84154372Y-63570628D01*
X83945827Y-63399479D01*
X83707900Y-63272304D01*
X83449734Y-63193990D01*
X83181250Y-63167547D01*
X82693750Y-63167547D01*
X82425266Y-63193990D01*
X82167100Y-63272304D01*
X81929173Y-63399479D01*
X81720628Y-63570628D01*
X81638543Y-63670648D01*
X81550000Y-63661928D01*
X81348250Y-63665000D01*
X81189500Y-63823750D01*
X81189500Y-64873000D01*
X81209500Y-64873000D01*
X81209500Y-65127000D01*
X81189500Y-65127000D01*
X81189500Y-65147000D01*
X80935500Y-65147000D01*
X80935500Y-65127000D01*
X80098750Y-65127000D01*
X79940000Y-65285750D01*
X79936928Y-65700000D01*
X79949188Y-65824482D01*
X79985498Y-65944180D01*
X80008510Y-65987231D01*
X79975000Y-65986928D01*
X79850518Y-65999188D01*
X79730820Y-66035498D01*
X79620506Y-66094463D01*
X79523815Y-66173815D01*
X79444463Y-66270506D01*
X79385498Y-66380820D01*
X79349188Y-66500518D01*
X79336928Y-66625000D01*
X79340000Y-67214250D01*
X79498750Y-67373000D01*
X80473000Y-67373000D01*
X80473000Y-67353000D01*
X80727000Y-67353000D01*
X80727000Y-67373000D01*
X80747000Y-67373000D01*
X80747000Y-67627000D01*
X80727000Y-67627000D01*
X80727000Y-67647000D01*
X80473000Y-67647000D01*
X80473000Y-67627000D01*
X79498750Y-67627000D01*
X79340000Y-67785750D01*
X79336928Y-68375000D01*
X79349188Y-68499482D01*
X79385498Y-68619180D01*
X79444463Y-68729494D01*
X79523815Y-68826185D01*
X79620506Y-68905537D01*
X79730820Y-68964502D01*
X79841248Y-68998000D01*
X79126930Y-68998000D01*
X79121321Y-68987507D01*
X78961831Y-68793169D01*
X78767493Y-68633679D01*
X78587570Y-68537508D01*
X78630890Y-68394703D01*
X78657453Y-68125000D01*
X78657453Y-66875000D01*
X78630890Y-66605297D01*
X78552220Y-66345958D01*
X78427000Y-66111687D01*
X78427000Y-65975000D01*
X78434387Y-65899999D01*
X78427000Y-65824998D01*
X78427000Y-65824989D01*
X78404905Y-65600656D01*
X78317590Y-65312815D01*
X78175797Y-65047540D01*
X77984976Y-64815024D01*
X77926706Y-64767203D01*
X77632797Y-64473294D01*
X77584976Y-64415024D01*
X77444819Y-64300000D01*
X79936928Y-64300000D01*
X79940000Y-64714250D01*
X80098750Y-64873000D01*
X80935500Y-64873000D01*
X80935500Y-63823750D01*
X80776750Y-63665000D01*
X80575000Y-63661928D01*
X80450518Y-63674188D01*
X80330820Y-63710498D01*
X80220506Y-63769463D01*
X80123815Y-63848815D01*
X80044463Y-63945506D01*
X79985498Y-64055820D01*
X79949188Y-64175518D01*
X79936928Y-64300000D01*
X77444819Y-64300000D01*
X77352460Y-64224203D01*
X77087185Y-64082410D01*
X76799344Y-63995095D01*
X76575011Y-63973000D01*
X76575001Y-63973000D01*
X76500000Y-63965613D01*
X76424999Y-63973000D01*
X73175000Y-63973000D01*
X73099999Y-63965613D01*
X73024998Y-63973000D01*
X73024989Y-63973000D01*
X72800656Y-63995095D01*
X72512815Y-64082410D01*
X72247540Y-64224203D01*
X72015024Y-64415024D01*
X71967203Y-64473294D01*
X71617294Y-64823203D01*
X71559024Y-64871024D01*
X71368203Y-65103541D01*
X71226410Y-65368816D01*
X71139095Y-65656657D01*
X71117000Y-65880990D01*
X71117000Y-65880999D01*
X71109613Y-65956000D01*
X71117000Y-66031002D01*
X71117000Y-66252714D01*
X70892702Y-66186903D01*
X70079605Y-67000000D01*
X70093748Y-67014143D01*
X69914143Y-67193748D01*
X69900000Y-67179605D01*
X69885858Y-67193748D01*
X69706253Y-67014143D01*
X69720395Y-67000000D01*
X68907298Y-66186903D01*
X68663329Y-66258486D01*
X68542429Y-66513996D01*
X68473700Y-66788184D01*
X68459783Y-67070512D01*
X68501213Y-67350130D01*
X68596397Y-67616292D01*
X68663329Y-67741514D01*
X68907296Y-67813097D01*
X68808980Y-67911413D01*
X68671609Y-68003201D01*
X68403201Y-68271609D01*
X68192315Y-68587223D01*
X68047053Y-68937915D01*
X67983605Y-69256891D01*
X67022658Y-70217839D01*
X67011157Y-70208400D01*
X66852783Y-70123747D01*
X66928825Y-69964099D01*
X66973476Y-69816890D01*
X66852155Y-69587000D01*
X65659000Y-69587000D01*
X65659000Y-69607000D01*
X65405000Y-69607000D01*
X65405000Y-69587000D01*
X65385000Y-69587000D01*
X65385000Y-69333000D01*
X65405000Y-69333000D01*
X65405000Y-68139186D01*
X65659000Y-68139186D01*
X65659000Y-69333000D01*
X66852155Y-69333000D01*
X66973476Y-69103110D01*
X66928825Y-68955901D01*
X66803641Y-68693080D01*
X66629588Y-68459731D01*
X66413355Y-68264822D01*
X66163252Y-68115843D01*
X65888891Y-68018519D01*
X65659000Y-68139186D01*
X65405000Y-68139186D01*
X65177000Y-68019512D01*
X65177000Y-66007298D01*
X69086903Y-66007298D01*
X69900000Y-66820395D01*
X70713097Y-66007298D01*
X70641514Y-65763329D01*
X70386004Y-65642429D01*
X70111816Y-65573700D01*
X69829488Y-65559783D01*
X69549870Y-65601213D01*
X69283708Y-65696397D01*
X69158486Y-65763329D01*
X69086903Y-66007298D01*
X65177000Y-66007298D01*
X65177000Y-61221980D01*
X72651626Y-61221980D01*
X72771514Y-61506836D01*
X73095210Y-61667699D01*
X73444069Y-61762322D01*
X73804684Y-61787067D01*
X74163198Y-61740985D01*
X74505833Y-61625846D01*
X74728486Y-61506836D01*
X74848374Y-61221980D01*
X73750000Y-60123605D01*
X72651626Y-61221980D01*
X65177000Y-61221980D01*
X65177000Y-59756072D01*
X65445801Y-60158361D01*
X65825639Y-60538199D01*
X66272281Y-60836636D01*
X66768563Y-61042203D01*
X67295414Y-61147000D01*
X67832586Y-61147000D01*
X68359437Y-61042203D01*
X68855719Y-60836636D01*
X69302361Y-60538199D01*
X69682199Y-60158361D01*
X69788891Y-59998684D01*
X71906933Y-59998684D01*
X71953015Y-60357198D01*
X72068154Y-60699833D01*
X72187164Y-60922486D01*
X72472020Y-61042374D01*
X73570395Y-59944000D01*
X73929605Y-59944000D01*
X75027980Y-61042374D01*
X75312836Y-60922486D01*
X75473699Y-60598790D01*
X75568322Y-60249931D01*
X75593067Y-59889316D01*
X75546985Y-59530802D01*
X75431846Y-59188167D01*
X75312836Y-58965514D01*
X75027980Y-58845626D01*
X73929605Y-59944000D01*
X73570395Y-59944000D01*
X72472020Y-58845626D01*
X72187164Y-58965514D01*
X72026301Y-59289210D01*
X71931678Y-59638069D01*
X71906933Y-59998684D01*
X69788891Y-59998684D01*
X69980636Y-59711719D01*
X70186203Y-59215437D01*
X70291000Y-58688586D01*
X70291000Y-58666020D01*
X72651626Y-58666020D01*
X73750000Y-59764395D01*
X74848374Y-58666020D01*
X74728486Y-58381164D01*
X74404790Y-58220301D01*
X74055931Y-58125678D01*
X73695316Y-58100933D01*
X73336802Y-58147015D01*
X72994167Y-58262154D01*
X72771514Y-58381164D01*
X72651626Y-58666020D01*
X70291000Y-58666020D01*
X70291000Y-58151414D01*
X70186203Y-57624563D01*
X69980636Y-57128281D01*
X69682199Y-56681639D01*
X69302361Y-56301801D01*
X69115583Y-56177000D01*
X106144417Y-56177000D01*
X105957639Y-56301801D01*
M02*
